<svg width="54" height="54" viewBox="0 0 54 54" fill="none" xmlns="http://www.w3.org/2000/svg">
<path d="M49.3454 15.6039L40.0857 3.75206C39.7957 3.38087 39.2597 3.31537 38.8889 3.60509C38.5177 3.89504 38.4521 4.43082 38.7419 4.80189L39.6273 5.93507L36.8802 8.08134L31.416 1.06897C30.8866 0.389622 30.0889 0 29.2276 0H8.76922C6.40073 0 4.47375 1.92686 4.47375 4.29546V49.7047C4.47375 52.0731 6.40061 54 8.7691 54H42.412C44.7805 54 46.7074 52.0731 46.7074 49.7047V21.6464C46.7074 21.0317 46.4994 20.4261 46.1215 19.9411L44.3568 17.6765L47.1162 15.5207L48.0016 16.6538C48.1698 16.869 48.4206 16.9816 48.674 16.9816C48.8576 16.9816 49.0426 16.9225 49.1984 16.8008C49.5696 16.5109 49.6353 15.975 49.3454 15.6039ZM44.7764 20.9893C44.922 21.1762 45.0021 21.4096 45.0021 21.6465V49.7047C45.0021 51.1328 43.8402 52.2948 42.412 52.2948H8.7691C7.34092 52.2948 6.17898 51.1328 6.17898 49.7047V4.29546C6.17898 2.86728 7.34092 1.70534 8.76922 1.70534H29.2276C29.5596 1.70534 29.8668 1.85549 30.0709 2.11727L44.7764 20.9893ZM46.0664 14.177L43.3088 16.3316L37.9284 9.42652L40.6772 7.27885L46.0664 14.177Z" fill="black"/>
<path d="M32.2363 11.6928C32.3807 11.4039 32.3496 11.0583 32.1557 10.7999L28.2337 5.57051C28.0728 5.35581 27.8199 5.22949 27.5515 5.22949H10.5557C10.0848 5.22949 9.70312 5.61125 9.70312 6.08211V11.3115C9.70312 11.7824 10.0848 12.1641 10.5557 12.1641H31.4737C31.7966 12.1641 32.0918 11.9817 32.2363 11.6928ZM11.4084 10.4589V6.93472H27.1252L29.7684 10.4589H11.4084Z" fill="black"/>
<path d="M31.9466 29.5268C31.6979 29.4304 31.418 29.4557 31.1909 29.596L28.9932 30.9507C28.6387 28.2379 27.401 22.3379 23.2161 19.6825C22.8657 19.4603 22.4063 19.5224 22.1276 19.8298C21.7784 20.215 13.5856 29.362 14.3422 37.9714C14.6893 41.9208 16.586 44.8882 19.6828 46.3269C20.923 46.9032 22.2678 47.1862 23.6251 47.1862C25.6689 47.1862 27.7398 46.5436 29.5177 45.2925C31.7826 43.6984 35.1763 39.6034 32.4581 30.0876C32.3848 29.8309 32.1955 29.6233 31.9466 29.5268ZM24.9164 38.9547C25.2302 39.1153 25.6108 39.0663 25.8736 38.8311L28.1226 36.8181C29.0578 41.342 27.4764 43.2781 26.3789 44.0506C24.8458 45.1296 22.8296 45.3503 21.2427 44.6131C19.6596 43.8777 18.6861 42.314 18.5011 40.2102C18.1375 36.0736 21.4861 31.4625 22.8059 29.8216C24.6516 31.7659 24.6411 36.3542 24.4571 38.1058C24.4199 38.4564 24.6025 38.7939 24.9164 38.9547ZM29.2003 43.3626C30.1078 41.6921 30.5892 39.0647 29.4293 35.0037C29.3485 34.7214 29.1282 34.5003 28.846 34.4187C28.5638 34.3374 28.2596 34.4068 28.0408 34.6026L26.2376 36.2167C26.2189 33.692 25.7626 29.5665 23.1507 27.9092C22.8005 27.6868 22.3407 27.7489 22.0622 28.0565C21.8261 28.3169 16.2876 34.5009 16.8025 40.3593C16.8298 40.6701 16.8729 40.9708 16.9277 41.2635C16.4553 40.26 16.1538 39.1045 16.0411 37.8218C15.4509 31.1089 21.1664 23.6443 22.9015 21.5484C27.0039 24.8016 27.4219 32.3548 27.4258 32.4338C27.4401 32.7351 27.6128 33.0065 27.8796 33.1473C28.1466 33.2879 28.4679 33.2772 28.7248 33.1189L31.1091 31.6491C32.7789 38.457 30.908 41.7958 29.2003 43.3626Z" fill="black"/>
</svg>
