<svg width="58" height="58" viewBox="0 0 58 58" fill="none" xmlns="http://www.w3.org/2000/svg">
<path d="M53.1666 46.4827V29V11.5173C55.9006 11.0534 58 8.66069 58 5.8C58 2.61 55.39 0 52.2 0C49.01 0 46.4 2.61 46.4 5.8C46.4 8.66069 48.4994 11.0534 51.2334 11.5173V28.0334H37.7V11.5173C40.4339 11.0534 42.5334 8.66069 42.5334 5.8C42.5334 2.61 39.9234 0 36.7334 0C33.5434 0 30.9334 2.61 30.9334 5.8C30.9334 8.66069 33.0328 11.0534 35.7667 11.5173V28.0334H22.2334V11.5173C24.9673 11.0534 27.0667 8.66069 27.0667 5.8C27.0667 2.61 24.4567 0 21.2667 0C18.0767 0 15.4667 2.61 15.4667 5.8C15.4667 8.66069 17.5662 11.0534 20.3001 11.5173V28.0334H6.76663V11.5173C9.50056 11.0534 11.6 8.66069 11.6 5.8C11.6 2.61 8.99 0 5.8 0C2.61 0 0 2.61 0 5.8C0 8.66069 2.09944 11.0534 4.83337 11.5173V29C4.83337 29.58 5.22 29.9666 5.8 29.9666H20.3V46.4827C17.5661 46.9466 15.4666 49.3393 15.4666 52.2C15.4666 55.39 18.0766 58 21.2666 58C24.4566 58 27.0666 55.39 27.0666 52.2C27.0666 49.3393 24.9672 46.9466 22.2333 46.4827V29.9666H35.7666V46.4827C33.0327 46.9466 30.9333 49.3393 30.9333 52.2C30.9333 55.39 33.5433 58 36.7333 58C39.9233 58 42.5333 55.39 42.5333 52.2C42.5333 49.3393 40.4338 46.9466 37.6999 46.4827V29.9666H51.2333V46.4827C48.4993 46.9466 46.3999 49.3393 46.3999 52.2C46.3999 55.39 49.0099 58 52.1999 58C55.3899 58 57.9999 55.39 57.9999 52.2C58 49.3393 55.9006 46.9466 53.1666 46.4827ZM48.3334 5.8C48.3334 3.67337 50.0734 1.93337 52.2 1.93337C54.3266 1.93337 56.0666 3.67337 56.0666 5.8C56.0666 7.92663 54.3266 9.66663 52.2 9.66663C50.0734 9.66663 48.3334 7.92663 48.3334 5.8ZM32.8666 5.8C32.8666 3.67337 34.6066 1.93337 36.7333 1.93337C38.8599 1.93337 40.5999 3.67337 40.5999 5.8C40.5999 7.92663 38.8599 9.66663 36.7333 9.66663C34.6066 9.66663 32.8666 7.92663 32.8666 5.8ZM17.4 5.8C17.4 3.67337 19.14 1.93337 21.2666 1.93337C23.3933 1.93337 25.1333 3.67337 25.1333 5.8C25.1333 7.92663 23.3933 9.66663 21.2666 9.66663C19.14 9.66663 17.4 7.92663 17.4 5.8ZM1.93337 5.8C1.93337 3.67337 3.67337 1.93337 5.8 1.93337C7.92663 1.93337 9.66663 3.67337 9.66663 5.8C9.66663 7.92663 7.92663 9.66663 5.8 9.66663C3.67337 9.66663 1.93337 7.92663 1.93337 5.8ZM25.1334 52.2C25.1334 54.3266 23.3934 56.0666 21.2667 56.0666C19.1401 56.0666 17.4001 54.3266 17.4001 52.2C17.4001 50.0734 19.1401 48.3334 21.2667 48.3334C23.3934 48.3334 25.1334 50.0734 25.1334 52.2ZM40.6 52.2C40.6 54.3266 38.86 56.0666 36.7334 56.0666C34.6067 56.0666 32.8667 54.3266 32.8667 52.2C32.8667 50.0734 34.6067 48.3334 36.7334 48.3334C38.86 48.3334 40.6 50.0734 40.6 52.2ZM52.2 56.0666C50.0734 56.0666 48.3334 54.3266 48.3334 52.2C48.3334 50.0734 50.0734 48.3334 52.2 48.3334C54.3266 48.3334 56.0666 50.0734 56.0666 52.2C56.0666 54.3266 54.3266 56.0666 52.2 56.0666Z" fill="black"/>
</svg>
