<svg width="85" height="88" viewBox="0 0 85 88" fill="none" xmlns="http://www.w3.org/2000/svg">
<path d="M27.3025 58.5547H73.5526C74.8243 58.5547 75.9284 57.7013 76.2176 56.495L84.9035 20.2724C85.0936 19.4797 84.9017 18.6462 84.3826 18.0086C83.8635 17.3709 83.0738 16.9992 82.2385 16.9992H21.0152L18.0737 4.26081C17.8265 3.18997 16.9421 2.36906 15.8322 2.1801L3.27061 0.041087C1.75289 -0.217557 0.307432 0.771867 0.0421321 2.25049C-0.223167 3.72912 0.79205 5.13717 2.30995 5.39564L13.0387 7.2225L23.8118 53.876C20.3189 55.2327 17.8424 58.5583 17.8424 62.4397C17.8424 67.5223 22.0863 71.6574 27.3025 71.6574H81.7101C83.2216 71.6574 84.447 70.4635 84.447 68.9909C84.447 67.5184 83.2216 66.3245 81.7101 66.3245H27.3025C25.1044 66.3245 23.3162 64.5817 23.3162 62.4397C23.3162 60.2977 25.1044 58.5547 27.3025 58.5547ZM47.6598 53.2218H42.0436L39.1134 40.4434H47.6596V53.2218H47.6598ZM71.442 22.3321H78.7885L75.7242 35.1105H68.5121L71.442 22.3321ZM74.4453 40.4436L71.3813 53.222H64.359L67.2892 40.4436H74.4453ZM53.1336 22.3321H65.8333L62.9032 35.1105H53.1334V22.3321H53.1336ZM53.1336 40.4436H61.6805L58.7503 53.222H53.1336V40.4436ZM47.6598 22.3321V35.1105H37.8908L34.9606 22.3321H47.6598ZM36.4347 53.2218H29.411L26.429 40.4434H33.5045L36.4347 53.2218ZM29.3517 22.3321L32.2819 35.1105H25.1976L22.2468 22.3321H29.3517Z" fill="white"/>
<path d="M39.9944 81.2582C39.9944 84.4495 37.3412 87.0387 34.064 87.0387C30.7869 87.0387 28.1292 84.4495 28.1292 81.2582C28.1292 78.0656 30.7869 75.4784 34.064 75.4784C37.3412 75.4784 39.9944 78.0656 39.9944 81.2582Z" fill="white"/>
<path d="M72.6055 81.2581C72.6055 84.4495 69.9508 87.0386 66.6736 87.0386C63.3964 87.0386 60.739 84.4495 60.739 81.2581C60.739 78.0655 63.3966 75.4784 66.6736 75.4784C69.9508 75.4784 72.6055 78.0655 72.6055 81.2581Z" fill="white"/>
</svg>
