<svg width="104" height="81" viewBox="0 0 104 81" fill="none" xmlns="http://www.w3.org/2000/svg">
<path d="M99.9673 32.8344V19.4707H92.1419L81.1391 0.977051H36.2931L25.7424 18.7334L5.61201 4.35728L3.68662 6.91617L21.2711 19.4707H3.02025V32.8344H0V39.1666H3.02581V44.0499H21.8429V42.4669C21.8429 39.0555 24.7004 36.2729 28.2103 36.2729C31.7161 36.2729 34.568 39.0555 34.568 42.4669V44.0499H42.4908V46.579H47.0608V77.7777H37.1778V80.9438H66.6917V77.7777H56.8102V46.579H61.376V44.0499H67.365C68.1399 48.4629 72.0575 51.8282 76.7986 51.8282C81.5453 51.8282 85.4712 48.4629 86.2461 44.0499H99.9631V39.1666H103.874V32.8344H99.9673ZM76.8014 48.6689C73.2984 48.6689 70.4493 45.8932 70.4493 42.4669C70.4493 39.0555 73.2998 36.2729 76.8014 36.2729C80.3113 36.2729 83.1674 39.0555 83.1674 42.4669C83.1674 45.8932 80.3113 48.6689 76.8014 48.6689ZM96.7175 40.8852H86.2517C85.4768 36.4749 81.5523 33.1069 76.8056 33.1069C72.0644 33.1069 68.1441 36.4749 67.3706 40.8852H37.6801C36.9066 36.4722 32.9528 33.1069 28.2089 33.1069C23.4594 33.1069 19.5001 36.4722 18.7294 40.8852H6.27561V22.6368H27.1781L38.1725 4.14314H79.2707L90.2694 22.6368H96.7244V40.8852H96.7175ZM56.7531 8.10888H75.1765V22.5162H56.7531V8.10888ZM78.4263 10.6352L85.4907 22.5135H78.4263V10.6352ZM40.5111 8.10888H53.5033V22.5162H31.9401L40.5111 8.10888ZM24.3874 50.4526C19.0814 50.4526 14.7687 54.6514 14.7687 59.8139C14.7687 62.6141 16.0681 65.1066 18.0867 66.8251H15.4449V73.1573H33.3326V66.8251H30.6908C32.7024 65.1066 34.0087 62.6154 34.0087 59.8139C33.9962 54.6514 29.6864 50.4526 24.3874 50.4526ZM24.3874 66.0038C20.8788 66.0038 18.0185 63.228 18.0185 59.8153C18.0185 56.3957 20.8788 53.62 24.3874 53.62C27.8917 53.62 30.7436 56.3957 30.7436 59.8153C30.7464 63.228 27.8973 66.0038 24.3874 66.0038ZM15.4449 74.6102H33.3326V80.9424H15.4449V74.6102Z" fill="white"/>
</svg>
