<svg width="110" height="110" viewBox="0 0 110 110" fill="none" xmlns="http://www.w3.org/2000/svg">
<path d="M84.3839 52.9517H83.8472C82.6642 52.9517 81.5401 53.2117 80.5304 53.6774C79.7554 50.0971 76.565 47.4073 72.7572 47.4073H72.2193C70.8618 47.4073 69.5837 47.7491 68.4645 48.3509C67.261 45.4878 64.4268 43.472 61.1305 43.472H60.5926C59.4794 43.472 58.4179 43.7019 57.4563 44.1171V32.7346C57.4563 28.3492 53.8892 24.7833 49.5038 24.7833H48.9659C44.5816 24.7833 41.0145 28.3504 41.0145 32.7346V61.932L37.3981 64.6771C34.517 66.8638 32.6914 70.0458 32.2557 73.6357C31.82 77.2269 32.8322 80.7531 35.1079 83.5656L46.394 97.5186V103.064C46.394 106.423 49.1271 109.157 52.486 109.157H80.6604C84.0193 109.157 86.7536 106.424 86.7536 103.064L86.7548 97.799C90.3604 93.2667 92.3377 87.6441 92.3377 81.8626V60.903C92.3353 56.5188 88.7694 52.9517 84.3839 52.9517ZM87.5214 81.8614C87.5214 86.7981 85.7427 91.5951 82.5162 95.3692C82.1419 95.8048 81.9385 96.3596 81.9385 96.9337V103.064C81.9385 103.769 81.3644 104.343 80.6592 104.343H52.486C51.782 104.343 51.2079 103.769 51.2079 103.064V96.6665C51.2079 96.1153 51.019 95.581 50.6724 95.1525L38.8507 80.5376C37.4017 78.7469 36.7567 76.5012 37.0347 74.2146C37.3115 71.9292 38.4752 69.9026 40.3093 68.5102L41.0145 67.9758V74.5889C41.0145 75.9175 42.0929 76.9958 43.4215 76.9958C44.7501 76.9958 45.8284 75.9175 45.8284 74.5889V63.1487C45.8284 63.1319 45.8284 63.1174 45.8284 63.1006V32.7334C45.8284 31.0029 47.2353 29.596 48.9659 29.596H49.5038C51.2344 29.596 52.6413 31.0041 52.6413 32.7334V51.4233C52.6413 51.4233 52.6413 51.4233 52.6413 51.4245C52.6413 51.4257 52.6413 51.4245 52.6413 51.4257L52.6533 66.9709C52.6545 68.2996 53.7316 69.3755 55.0602 69.3755H55.0614C56.3901 69.3743 57.4672 68.2971 57.466 66.9661L57.4551 51.4233C57.4551 49.6927 58.862 48.2859 60.5914 48.2859H61.1293C62.8599 48.2859 64.2668 49.6939 64.2668 51.4233V55.3587V55.3599V55.3611L64.2776 66.9709C64.2788 68.2996 65.3559 69.3755 66.6845 69.3755C66.6857 69.3755 66.6857 69.3755 66.6869 69.3755C68.0156 69.3743 69.0927 68.2959 69.0915 66.9661L69.0806 55.3575C69.0806 53.6269 70.4875 52.22 72.2169 52.22H72.7548C74.4854 52.22 75.8923 53.6281 75.8923 55.3575V60.2772C75.885 60.3567 75.8682 60.4337 75.8682 60.5143L75.8802 66.9721C75.8826 68.3008 76.9597 69.3743 78.2872 69.3743C78.2884 69.3743 78.2896 69.3743 78.292 69.3743C79.6206 69.3718 80.6965 68.2923 80.6941 66.9625L80.6833 61.1233C80.6905 61.0487 80.7061 60.9776 80.7061 60.9018C80.7061 59.1712 82.1142 57.7644 83.8436 57.7644H84.3803C86.1109 57.7644 87.5178 59.1724 87.5178 60.9018V81.8614H87.5214Z" fill="white"/>
<path d="M77.8587 31.5456H63.1716C61.843 31.5456 60.7646 30.4673 60.7646 29.1386C60.7646 27.81 61.843 26.7317 63.1716 26.7317H77.8587C79.1873 26.7317 80.2657 27.81 80.2657 29.1386C80.2657 30.4673 79.1885 31.5456 77.8587 31.5456Z" fill="white"/>
<path d="M48.9646 20.3449C47.6359 20.3449 46.5576 19.2666 46.5576 17.9379V3.25081C46.5576 1.92218 47.6359 0.843872 48.9646 0.843872C50.2932 0.843872 51.3715 1.92218 51.3715 3.25081V17.9379C51.3715 19.2678 50.2944 20.3449 48.9646 20.3449Z" fill="white"/>
<path d="M59.2819 23.037C58.6657 23.037 58.0507 22.8024 57.5802 22.3318C56.6403 21.3919 56.6403 19.8683 57.5802 18.9284L67.9661 8.54368C68.906 7.60377 70.4296 7.60377 71.3695 8.54368C72.3094 9.48359 72.3094 11.0072 71.3695 11.9471L60.9836 22.3318C60.513 22.8024 59.8968 23.037 59.2819 23.037Z" fill="white"/>
<path d="M34.7589 31.5456H20.0717C18.7431 31.5456 17.6648 30.4673 17.6648 29.1386C17.6648 27.81 18.7431 26.7317 20.0717 26.7317H34.7589C36.0875 26.7317 37.1658 27.81 37.1658 29.1386C37.1658 30.4673 36.0875 31.5456 34.7589 31.5456Z" fill="white"/>
<path d="M38.6485 23.037C38.0324 23.037 37.4162 22.8024 36.9468 22.3318L26.5621 11.9471C25.6222 11.0072 25.6222 9.48359 26.5621 8.54368C27.5008 7.60377 29.0268 7.60377 29.9655 8.54368L40.3502 18.9284C41.2902 19.8683 41.2902 21.3919 40.3502 22.3318C39.8809 22.8024 39.2647 23.037 38.6485 23.037Z" fill="white"/>
</svg>
