<svg width="75" height="77" viewBox="0 0 75 77" fill="none" xmlns="http://www.w3.org/2000/svg">
<path d="M30.8067 75.0965C31.7272 74.8334 48.0548 73.0999 64.1045 59.2203C64.1045 59.2203 60.1551 62.093 51.6263 63.4075C51.6263 63.4075 60.5103 56.8151 74.0232 57.2179C74.0232 57.2179 68.9321 54.8612 54.5935 59.5308C38.0846 64.9079 58.6551 56.9271 58.6551 56.9271C58.6551 56.9271 54.2136 56.0742 37.3475 67.5901C31.8837 71.3202 35.1164 66.9657 33.3816 68.2826C28.1258 72.2747 30.8067 75.0965 30.8067 75.0965Z" fill="#1E1E1E"/>
<path d="M52.5157 40.0815C53.5185 40.093 54.3082 41.0544 54.2269 42.1739C53.6235 50.4825 51.1145 58.0016 47.3268 63.8576C47.3268 63.8576 47.3268 63.8576 47.3258 63.8588C47.3165 63.8715 47.263 63.9569 47.1652 64.1035C47.091 64.2154 46.9891 64.3643 46.8656 64.5432C46.4311 65.1641 45.7104 66.1567 44.7694 67.2935C44.7694 67.2946 44.7684 67.297 44.7653 67.2981C44.4286 67.7067 44.0621 68.1325 43.6709 68.5688C41.1886 71.3306 37.7015 74.4168 34.0394 75.145H34.0384C27.0848 76.5288 26.2086 72.7675 26.2076 72.764C27.474 72.8806 27.6758 72.6048 27.6747 72.4166C27.6747 72.3266 27.6284 72.2562 27.6284 72.2562L26.9746 70.4985C23.4381 71.2348 22.4662 67.1665 22.284 66.1855C22.2603 66.0597 22.3066 65.9305 22.4014 65.8566L23.3908 65.0787L23.3897 65.0776L22.2243 64.1727C22.1882 64.1554 22.1522 64.1393 22.1162 64.1219C17.1496 63.0371 17.2721 59.6209 17.4183 58.6283C17.441 58.4713 17.5614 58.3559 17.7025 58.3559H18.6486C18.8782 58.3559 19.0162 58.0686 18.8885 57.8539L18.1977 56.6905C18.1617 56.6305 18.1081 56.5855 18.0474 56.5636C13.5019 54.8878 14.2092 51.7543 14.584 50.7329C14.6499 50.554 14.8352 50.4813 14.9886 50.5702C15.8369 51.0607 16.5494 50.9857 16.9458 50.8726C17.1259 50.8206 17.2114 50.591 17.1239 50.4075L16.4506 49.0075C16.3939 48.9544 16.3435 48.9071 16.2869 48.8552C12.3046 47.3767 12.8029 43.8566 13.0973 42.6748C13.1478 42.4728 13.3537 42.3805 13.5163 42.4832C15.039 43.4458 15.9265 43.2011 16.3208 42.9703C16.466 42.8849 16.5123 42.6771 16.4279 42.5202L15.6187 41.0244C15.5281 40.969 15.456 40.9252 15.3644 40.8686C12.4466 41.0233 12.1903 37.2631 12.1687 36.6007C12.1666 36.5372 12.181 36.476 12.2098 36.4218L12.9995 34.9468C13.1025 34.754 13.3475 34.7344 13.471 34.9122C14.0054 35.6843 14.8753 35.8655 15.1657 35.9047C15.2274 35.9128 15.2892 35.8989 15.3438 35.8632C15.5219 35.7454 15.9646 35.4431 16.3723 35.0818C16.4361 35.0253 16.4742 34.9399 16.4784 34.8487C16.4989 34.4401 16.5237 34.0327 16.5515 33.6276C16.5628 33.4603 16.4598 33.3114 16.3126 33.286C16.1911 33.2652 16.0542 33.2479 15.9018 33.2364C12.8801 32.9998 13.2291 28.7249 13.2806 28.2194C13.2837 28.1859 13.2929 28.1536 13.3053 28.1224C13.3918 27.9147 13.7696 27.0722 14.4821 26.3266C14.6375 26.1639 15.283 27.0156 15.4962 27.3076C15.5415 27.3699 15.6053 27.4103 15.6763 27.4219L16.3754 27.5396C16.3898 27.5419 16.4042 27.5431 16.4176 27.5431H17.0467C17.1836 27.5431 17.302 27.4334 17.3288 27.2822C17.3772 27.0099 17.4266 26.7398 17.4791 26.4709C17.5028 26.3497 17.4626 26.225 17.3761 26.1489L15.6393 24.6254C15.5693 24.5643 15.5291 24.4708 15.5291 24.3715V21.0938C15.5291 20.9899 15.5734 20.8918 15.6485 20.8318L17.3216 19.4826C17.371 19.4434 17.4297 19.4215 17.4894 19.4215H18.5529C18.7022 19.4215 18.8268 19.2945 18.8401 19.1283L19.2478 14.1136C19.2581 13.9821 19.3405 13.8736 19.4538 13.8344C22.6999 12.7056 23.8613 8.87738 24.0806 8.03256C24.1073 7.92753 24.1815 7.8479 24.2751 7.81674C27.9125 6.60491 28.9648 3.85462 29.1624 3.22331C29.1892 3.1379 29.2458 3.07096 29.3189 3.03403L33.2703 1.11127C33.2703 1.11127 33.2878 1.11589 33.3198 1.12743C33.3311 1.13089 33.3445 1.1355 33.3568 1.13896C33.7604 1.27977 34.8497 1.5152 37.7808 3.1506C37.7859 3.15406 37.7911 3.15638 37.7973 3.15869C37.9229 3.21755 39.5794 3.99658 41.689 5.69083C43.083 6.81034 44.5192 8.0441 45.7773 9.6645C45.7845 9.67257 45.7917 9.68296 45.7989 9.69104C45.8545 9.76375 45.9101 9.83531 45.9657 9.90917C45.975 9.92071 45.9832 9.93226 45.9904 9.9438C48.032 12.6479 49.7658 16.0918 51.0795 20.062C51.5984 21.6282 52.0514 23.2786 52.4313 24.9971C52.4756 25.1979 52.3407 25.3952 52.1554 25.3987L48.0331 25.4772C47.5265 25.4864 47.0725 25.1286 46.9119 24.5897C45.8113 20.9057 41.0259 7.58361 31.2504 15.479C30.9786 15.6983 30.6481 15.3151 30.855 15.0185C32.4446 12.7345 36.1119 9.23747 42.4241 12.4771C42.6001 12.1459 42.5414 12.2578 42.7175 11.9266C40.9848 10.4251 39.0719 9.59294 37.0622 9.59294C29.218 9.59294 22.8595 22.2699 22.8595 37.9094C22.8595 53.549 29.218 66.2248 37.0622 66.2248C37.0714 66.2248 37.0817 66.2248 37.091 66.2248C37.4472 66.2236 37.473 65.6362 37.1198 65.5854C32.8626 64.9737 31.1783 62.2188 30.5781 60.7715C30.4597 60.4853 30.7407 60.1979 30.9837 60.3572C42.1739 67.7194 45.6672 55.2017 46.6566 49.4195C46.8954 48.0242 45.9472 46.7304 44.6798 46.7304H34.2772C33.6358 46.7304 33.1159 46.1476 33.1159 45.4286V41.1791C33.1159 40.4554 33.643 39.8703 34.2886 39.8772L52.5157 40.0815Z" fill="#E03426"/>
<path d="M27.6261 72.2562C27.6261 72.2562 27.6724 72.3266 27.6724 72.4166C27.552 72.3289 27.6261 72.2562 27.6261 72.2562Z" fill="#1E1E1E"/>
<path d="M28.2986 2.14529C28.2986 2.14529 29.2695 5.93775 24.9372 6.1882C24.9372 6.1882 23.4433 6.02084 23.3681 7.27653H18.2883L17.9897 5.68845L23.19 3.15977L28.2986 2.14529Z" fill="#1E1E1E"/>
<path d="M28.6724 2.14534L32.0771 0.76848C32.0771 0.76848 27.684 -0.168676 27.5718 0.162557C27.4596 0.493791 26.9736 1.47826 26.9736 1.47826L28.6724 2.14534Z" fill="#1E1E1E"/>
<path d="M26.5534 0.171828L25.809 1.66757L22.4228 2.39352L17.9906 5.01683L15.7637 3.7046C15.7626 3.7046 21.6579 -0.296746 26.5534 0.171828Z" fill="#1E1E1E"/>
<path d="M22.1729 8.53339H17.6408L13.5576 11.3241V14.0593H17.9898C17.9898 14.0605 23.2683 11.0459 22.1729 8.53339Z" fill="#1E1E1E"/>
<path d="M16.7956 8.53341L14.3556 10.1527L10.92 10.432L9.33447 9.58944C9.33447 9.58944 13.5598 4.7121 14.7221 4.42588C15.0083 4.35548 17.051 5.68964 17.051 5.68964L16.7956 8.53341Z" fill="#1E1E1E"/>
<path d="M12.7113 11.2964L12.1626 15.5113L9.33235 18.4704L8.27911 15.4005L5.30371 15.7536C5.30371 15.7536 6.20354 13.2953 8.83507 10.2173L10.7192 11.2975H12.7113V11.2964Z" fill="#1E1E1E"/>
<path d="M17.4296 15.2747H13.5585L9.66162 19.0429V23.1458L13.8818 21.6801L17.4296 18.624V15.2747Z" fill="#1E1E1E"/>
<path d="M14.4791 22.3922L9.66082 24.1511V26.1189L6.93457 28.5471L7.45758 31.6875L12.1626 29.1334C12.1626 29.1334 11.7148 27.2914 14.0313 25.7426L14.4791 22.3922Z" fill="#1E1E1E"/>
<path d="M7.71887 17.0324L8.57751 19.7954L8.39117 25.154L6.03864 27.9597L2.60303 24.4846L2.70083 21.8567C2.70083 21.8567 3.66141 18.3551 4.66419 17.0313H7.71887V17.0324Z" fill="#1E1E1E"/>
<path d="M12.1634 29.8028L6.93535 32.8174L6.71091 35.2041L4.91846 37.0877L6.93535 41.2321L11.2306 37.9048C11.2306 37.9048 10.9691 34.9525 12.5382 33.1521C12.5371 33.1521 11.9379 30.4307 12.1634 29.8028Z" fill="#1E1E1E"/>
<path d="M5.5906 28.7976L6.29996 31.9795L5.5906 34.7852L3.19998 37.9048H0.0639648C0.0639648 37.9048 0.105147 29.7394 1.59697 25.6053L5.5906 28.7976Z" fill="#1E1E1E"/>
<path d="M11.5294 39.1385L7.27116 42.362L6.30029 48.3069L8.31718 50.7768L11.7157 46.6323C11.7157 46.6323 11.3801 43.7851 12.5373 40.5616L11.5294 39.1385Z" fill="#1E1E1E"/>
<path d="M4.39551 38.4692L6.30018 42.3205L5.70304 47.6376L5.59082 48.517L3.1827 47.8892L1.37995 50.0127C1.37995 50.0127 -0.347635 41.6511 0.0631559 39.1397L4.39551 38.4692Z" fill="#1E1E1E"/>
<path d="M12.5374 47.3317L9.0266 51.6297L8.72803 58.1609L11.2175 60.9516L13.8573 55.2571C13.8573 55.2571 12.8112 51.7959 13.8573 50.2886L12.5374 47.3317Z" fill="#1E1E1E"/>
<path d="M8.08029 51.9101V57.9935L6.07472 62.1703C6.07472 62.1703 6.07472 62.1703 6.07369 62.1703C4.17314 58.8661 2.65764 55.1059 1.625 51.0261L3.18168 49.7877L5.39213 49.7323L8.08029 51.9101Z" fill="#1E1E1E"/>
<path d="M14.4788 55.9507L12.5371 60.9515L13.508 67.2934L16.4957 69.604L17.4913 63.0163L16.4957 62.4023L16.3465 58.2151C16.3465 58.2174 14.8032 57.5365 14.4788 55.9507Z" fill="#1E1E1E"/>
<path d="M8.4291 59.9474L11.2923 62.1703L12.537 67.0927L12.1633 69.9734C12.1633 69.9734 7.10201 65.1791 6.76123 63.3164L8.4291 59.9474Z" fill="#1E1E1E"/>
<path d="M18.4387 64.0781C18.4387 64.0781 20.2815 65.6973 21.2277 65.418C21.2277 65.418 20.403 69.5486 22.8575 71.3906L22.4735 72.3359L17.7427 70.8874L18.4387 64.0781Z" fill="#1E1E1E"/>
<path d="M23.3187 72.8425L23.6677 70.944L25.5137 72.3359C25.5137 72.3359 25.8174 75.5974 28.5519 76.313C28.5519 76.313 25.0638 76.5034 22.8574 75.8698L23.3187 72.8425Z" fill="#1E1E1E"/>
<path d="M17.4925 73.8443C15.7917 72.9279 14.1733 71.7796 12.6567 70.4258C12.9079 69.3651 13.3095 68.5711 13.3095 68.5711L16.6463 70.7224L17.4925 73.8443Z" fill="#1E1E1E"/>
<path d="M22.3725 73.0664L22.2511 75.7232C20.785 75.3447 19.3621 74.7999 17.9897 74.1028V71.783L22.3725 73.0664Z" fill="#1E1E1E"/>
</svg>
