<svg width="90" height="90" viewBox="0 0 90 90" fill="none" xmlns="http://www.w3.org/2000/svg">
<path d="M45 90C69.8528 90 90 69.8528 90 45C90 20.1472 69.8528 0 45 0C20.1472 0 0 20.1472 0 45C0 69.8528 20.1472 90 45 90Z" fill="#E03426"/>
<path d="M46.4001 54.5C45.8001 49.9 45.1 45.3 44.5 40.7C30.6 40.3 16.8 40 3.00005 39.8V39.9C2.30005 44.9 2.00005 50 2.10005 55.1C2.10005 55.3 2.10005 55.6 2.10005 55.8L24.6 56C25.8001 59.6 29.2 62.3 33.3 62.3C37.4 62.3 40.9 59.6 42.1 55.8L45.8 54.9L46.4001 54.5Z" fill="black"/>
<path d="M22 27.1C31 13.5 42 10.5 54.6 14.2C60.8 16.6 65.8 21.2 68.9 27.1" stroke="white" stroke-width="4" stroke-miterlimit="10"/>
<path d="M72.7 24.7L64.6 28.3L70.5 30.5L72.7 24.7Z" fill="white"/>
<path d="M66.9 62C57.9 75.6 46.9 78.6 34.3 74.9C28.1 72.5 23.1 67.9 20 62" stroke="white" stroke-width="4" stroke-miterlimit="10"/>
<path d="M16 64.8L24.1 61.2L18.2 59L16 64.8Z" fill="white"/>
<path d="M33.3 59.4C36.8 59.4 39.7001 56.5 39.7001 52.9C39.7001 49.4 36.8001 46.5 33.2001 46.5C29.7001 46.5 26.8 49.4 26.8 52.9C26.8 56.6 29.7 59.4 33.3 59.4Z" fill="white"/>
<path d="M33.2999 54.1C33.9075 54.1 34.4 53.6075 34.4 53C34.4 52.3925 33.9075 51.9 33.2999 51.9C32.6924 51.9 32.2 52.3925 32.2 53C32.2 53.6075 32.6924 54.1 33.2999 54.1Z" fill="black"/>
<path d="M32.5 47.7C32.4 47.8 33.2 47.5 33.2 47.5C33.2 47.5 34 47.8 33.9 47.7C33.8 47.6 34.3 47.8 34.3 48.1V49.8C34.3 49.8 33.8 51.2 33.2 51.2C32.6 51.2 32.1 49.8 32.1 49.8V48.1C32.1 47.7 32.5 47.7 32.5 47.7Z" fill="black"/>
<path d="M30.2 57.7C30.4 57.7 29.6 57.3 29.6 57.3C29.6 57.3 29.2 56.5 29.2 56.7C29.2 56.7 29 56.3 29.2 56.1L30.4 54.9C30.4 54.9 31.8 54.3 32.2 54.7C32.6 55.1 32 56.5 32 56.5L30.8 57.7C30.6 58 30.2 57.7 30.2 57.7Z" fill="black"/>
<path d="M27.7 51.9C27.8 52.1 27.7999 51.2 27.7999 51.2C27.7999 51.2 28.3 50.5 28.2 50.6C28.1 50.7 28.4 50.2 28.7 50.3L30.2999 50.8C30.2999 50.8 31.3999 51.7 31.2999 52.3C31.0999 52.9 29.6 52.9 29.6 52.9L28 52.4C27.7 52.3 27.7 51.9 27.7 51.9Z" fill="black"/>
<path d="M36.4 57.7C36.2 57.7 37 57.3 37 57.3C37 57.3 37.4 56.5 37.4 56.7C37.4 56.7 37.6 56.3 37.4 56.1L36.2 54.9C36.2 54.9 34.8 54.3 34.4 54.7C34 55.1 34.5999 56.5 34.5999 56.5L35.7999 57.7C36.0999 58 36.4 57.7 36.4 57.7Z" fill="black"/>
<path d="M38.8 51.6C38.7 51.8 38.6 50.9 38.6 50.9C38.6 50.9 38 50.3 38.1 50.4C38.3 50.5 37.8 50 37.5 50.2L36.1 51C36.1 51 35.1 52.1 35.4 52.6C35.6 53.1 37 53 37 53L38.6 52.2C38.9 52.1 38.8 51.6 38.8 51.6Z" fill="black"/>
<path d="M22.3 55.9C22.3 55.2 22.1 44.9 29.8 42.7H29.9C30.7 42.5 31.6 42.4 32.6 42.4C34.2 42.4 35.7 42.6 36.9 42.9C43.4 44.8 43.9 51.5 43.9 51.5L44.2 54.5C44.2 54.5 44.2 55.5 44.8 55.7C44.9 55.7 45 55.8 45.1 55.8C46 55.8 53.1 54.9 53.1 54.9C53.6 54.6 54 54.1 54.2 53.5C54.5 52.6 55.3 47.8 55.3 47.8L54.8 45.8C54.8 45.8 53.9 43.9 53.3 43.6C52.7 43.4 53.3 41.6 53.3 41.6L52.4 39.3C52.4 39.3 51.7 38.3 51.2 38.3C49.9 37.2 48.3 36.3 46.7 35.8C40 34.2 33.1 33.1 26.2 32.3C26.2 32.3 15.1 24.6 6.2 22.2C5.7 23.1 5.2 24 4.7 24.9C6.9 25.6 9.1 26.5 11.2 27.6C11.2 27.6 19.4 32.1 21.1 33.6C21.5 34 19.7 34 19.7 34C19.7 34 11.4 33.6 1.6 33C0.6 36.9 0 40.9 0 45C0 48.9 0.5 52.7 1.4 56.4C12.3 56.6 21 56.7 21 56.7C21 56.7 22.3 56.7 22.3 55.9Z" fill="#C4C4C4"/>
<path d="M19.7 34.1C19.7 34.1 21.5 34 21.1 33.7C19.5 32.1 11.2 27.7 11.2 27.7C9.09998 26.6 6.89998 25.7 4.69998 25C3.39998 27.6 2.29998 30.4 1.59998 33.2C11.4 33.7 19.7 34.1 19.7 34.1Z" fill="black"/>
<path d="M9.79996 23.4C9.79996 23.4 9.29996 24 10.6 24.8C11.9 25.6 23.4 32.2 23.4 32.2C24.3 32.6 25.3 32.7 26.2 32.3C26.2 32.3 16.8 25.9 9.79996 23.4Z" fill="black"/>
<path d="M40.5 36.8L50.7 38.7H50.8C51.8 39.1 52.1 39.7 52 40.2C51.9 40.4 51.9 40.6 51.8 40.8L51.3 41.8L51.1 42.3C51 42.4 50.9 42.4 50.8 42.4L44.7 40L40.4 37.2C40.3 37.1 40.2 37 40.3 36.9C40.3 36.8 40.4 36.8 40.5 36.8Z" fill="white"/>
<path d="M74.9 55.8C81.4722 55.8 86.8 50.4722 86.8 43.9C86.8 37.3278 81.4722 32 74.9 32C68.3278 32 63 37.3278 63 43.9C63 50.4722 68.3278 55.8 74.9 55.8Z" fill="#F8A41E"/>
<path d="M75.4217 36.3896V38.843H74.2151V36.3896H75.4217ZM75.2769 49.5254V51.6732H74.0783V49.5254H75.2769ZM76.8857 46.9835C76.8857 46.6617 76.8133 46.3722 76.6685 46.1148C76.5237 45.8573 76.285 45.6214 75.9526 45.4069C75.6201 45.1924 75.175 44.994 74.6173 44.8116C73.9416 44.6025 73.357 44.3478 72.8637 44.0474C72.3757 43.7471 71.9976 43.3744 71.7295 42.9293C71.4667 42.4842 71.3353 41.9453 71.3353 41.3125C71.3353 40.6529 71.4774 40.0844 71.7616 39.6072C72.0459 39.1299 72.4481 38.7625 72.9682 38.5051C73.4884 38.2477 74.0998 38.119 74.8023 38.119C75.3493 38.119 75.8373 38.2021 76.2663 38.3684C76.6953 38.5293 77.0573 38.7706 77.3522 39.0923C77.6525 39.4141 77.8804 39.8083 78.036 40.2748C78.1968 40.7414 78.2773 41.2803 78.2773 41.8917H76.7972C76.7972 41.5324 76.7543 41.2026 76.6685 40.9022C76.5827 40.6019 76.454 40.3418 76.2824 40.122C76.1108 39.8967 75.9016 39.7251 75.6549 39.6072C75.4082 39.4838 75.124 39.4221 74.8023 39.4221C74.3518 39.4221 73.9791 39.4999 73.6841 39.6554C73.3946 39.8109 73.1801 40.0308 73.0406 40.315C72.9012 40.5939 72.8315 40.9183 72.8315 41.2884C72.8315 41.6316 72.9012 41.9319 73.0406 42.1893C73.1801 42.4467 73.416 42.68 73.7485 42.8891C74.0863 43.0929 74.5502 43.294 75.1401 43.4924C75.8319 43.7123 76.4191 43.9724 76.9017 44.2727C77.3844 44.5676 77.7517 44.9323 78.0038 45.3667C78.2558 45.7957 78.3818 46.3293 78.3818 46.9674C78.3818 47.6592 78.2263 48.2437 77.9153 48.721C77.6043 49.1929 77.1672 49.5522 76.6041 49.7989C76.041 50.0456 75.3814 50.1689 74.6253 50.1689C74.1695 50.1689 73.719 50.1073 73.2739 49.9839C72.8288 49.8606 72.4266 49.6595 72.0673 49.3806C71.708 49.0964 71.4211 48.7237 71.2066 48.2625C70.9921 47.7959 70.8848 47.2248 70.8848 46.5491H72.381C72.381 47.005 72.4454 47.383 72.5741 47.6833C72.7081 47.9783 72.8851 48.2142 73.105 48.3912C73.3249 48.5628 73.5662 48.6861 73.8289 48.7612C74.0971 48.8309 74.3625 48.8658 74.6253 48.8658C75.1079 48.8658 75.5155 48.7907 75.848 48.6406C76.1858 48.485 76.4432 48.2652 76.6202 47.981C76.7972 47.6967 76.8857 47.3643 76.8857 46.9835Z" fill="white"/>
</svg>
