<svg width="90" height="90" viewBox="0 0 90 90" fill="none" xmlns="http://www.w3.org/2000/svg">
<path d="M45 90C69.8528 90 90 69.8528 90 45C90 20.1472 69.8528 0 45 0C20.1472 0 0 20.1472 0 45C0 69.8528 20.1472 90 45 90Z" fill="#E03426"/>
<path d="M39.9 9.09999C39.9 9.09999 34.1 8.19999 31.5 24.6C29.2 41.3 23.1 48.5 26.7 64.4H65.2C68.5 45.6 59.5 44.3 59.6 25.2C59.7 25.1 61.8 1.69999 39.9 9.09999Z" fill="black"/>
<path d="M66.5 54.1C60.8 52.6 52.7 49.4 48.2 49.2H45.4C40.9 49.4 32.8 52.6 27.1 54.1C21.7 55.6 18.5 57.3 16.6 60.8L17.2 47.7L7.80001 44.3L6.00001 44.2C4.50001 45.3 3.50001 47 3.20001 48.9L1.60001 56.8C6.40001 74.5 21.8 87.9 40.6 89.8H49.6C61.4 88.6 71.9 82.9 79.2 74.3C79.1 60.5 76.6 56.8 66.5 54.1Z" fill="#F8A41E"/>
<path d="M12.3 23.9C10.3 25 7.60001 32.5 7.60001 32.5L4.60001 45.8L16.2 47.7L18.4 34.4L20 31.6V19.4C19.7 18.5 18.9 18.5 17.8 19.2C16.2 20.9 14.3 22.5 12.3 23.9Z" fill="#FFD9C8"/>
<path d="M52 17.5L39.8 11.5C37.6 11.5 34.3 21.3 34.5 23.4C34.8 30.2 34.5 44.9 45.5 44.9C56.8 44.9 58.3 31.7 58.2 25C59 22.4 52 17.5 52 17.5Z" fill="#FFD9C8"/>
<path d="M33.4 25.6C32.7 25 31.8 25 31.1 25.7C30.9 25.9 30.8 26.2 30.8 26.4C30.4 28.2 30.5 32.8 34.8 32.9C39.1 33 33.4 25.6 33.4 25.6Z" fill="#FFD9C8"/>
<path d="M58.1 26.1C58.8 25.5 59.7 25.5 60.4 26.2C60.6 26.4 60.7 26.7 60.7 26.9C61.1 28.5 61 33.3 56.7 33.4C52.4 33.5 58.1 26.1 58.1 26.1Z" fill="#FFD9C8"/>
<path d="M39.5 30.7C42.2062 30.7 44.4 28.5062 44.4 25.8C44.4 23.0938 42.2062 20.9 39.5 20.9C36.7938 20.9 34.6 23.0938 34.6 25.8C34.6 28.5062 36.7938 30.7 39.5 30.7Z" stroke="black" stroke-width="0.75" stroke-linecap="round" stroke-linejoin="round"/>
<path d="M50.8 26.1C50.8 27.1 51.3 26.7 51.7 26.7C52.2 26.7 52.6 27.2 52.6 26.1C52.6 25.1 52.1 24.4 51.6 24.4C51.1 24.4 50.8 25.1 50.8 26.1Z" fill="black"/>
<path d="M39 26.1C39 27.1 39.5 26.7 39.9 26.7C40.3 26.7 40.8 27.2 40.8 26.1C40.8 25.1 40.3 24.4 39.8 24.4C39.2 24.4 39 25.1 39 26.1Z" fill="black"/>
<path d="M40.6 35.3H52.4C52.4 35.3 49.8 38.8 46.2 38.8C42.6 38.8 40.6 35.3 40.6 35.3Z" fill="white"/>
<path d="M34 25.1H31.6" stroke="black" stroke-width="0.75" stroke-linecap="round" stroke-linejoin="round"/>
<path d="M57 25.1H59.4" stroke="black" stroke-width="0.75" stroke-linecap="round" stroke-linejoin="round"/>
<path d="M43.6 32.5C45 33.2 46.7 33 47.9 31.9L47.2 27.4" stroke="#B6685E" stroke-width="0.75" stroke-linecap="round" stroke-linejoin="round"/>
<path d="M51.7 30.7C54.4062 30.7 56.6 28.5062 56.6 25.8C56.6 23.0938 54.4062 20.9 51.7 20.9C48.9938 20.9 46.8 23.0938 46.8 25.8C46.8 28.5062 48.9938 30.7 51.7 30.7Z" stroke="black" stroke-width="0.75" stroke-linecap="round" stroke-linejoin="round"/>
<path d="M44.4 25.1H46.8" stroke="black" stroke-width="0.75" stroke-linecap="round" stroke-linejoin="round"/>
<path d="M16.7 29.9C18.5778 29.9 20.1 28.3778 20.1 26.5C20.1 24.6222 18.5778 23.1 16.7 23.1C14.8222 23.1 13.3 24.6222 13.3 26.5C13.3 28.3778 14.8222 29.9 16.7 29.9Z" fill="black"/>
<path d="M78.2 23.6C84.7169 23.6 90 18.317 90 11.8C90 5.28304 84.7169 0 78.2 0C71.683 0 66.4 5.28304 66.4 11.8C66.4 18.317 71.683 23.6 78.2 23.6Z" fill="#F8A41E"/>
<path d="M88.2 31.9C88.5 32 88.9 31.9 89 31.5C89.1 31.3 89.1 31.1 89 31L81.9 15.2C81.9 14.8 79.5 16.4 78.7 16.9C78.7 17 78.6 17 78.4 17C77.4 17 74.3 16.9 74.6 17.2L81.9 33.5C82.1 33.9 82.4 34 82.7 33.7C82.8 33.6 82.9 33.5 82.9 33.5L84.4 30.9C84.6 30.7 84.9 30.5 85.2 30.7L88.2 31.9Z" fill="#F8A41E"/>
<path d="M77.9 17.1C77.8 17.1 77.7 17.1 77.7 17C76.9 16.5 74.5 15 74.5 15.3L67.4 31.1C67.2 31.5 67.4 31.8 67.6 31.9C67.8 32 67.9 32 68.1 31.9L71.3 30.5C71.5 30.4 71.9 30.5 72.1 30.7L73.6 33.3C73.8 33.5 74.1 33.7 74.4 33.5C74.5 33.4 74.6 33.3 74.6 33.3L81.8 17.1C82 17 78.9 17 77.9 17.1Z" fill="#F8A41E"/>
<path d="M85.1 4.5C85 4.5 84.8 4.5 84.7 4.6L75.7 16L72.6 12.1C72.5 12 72.3 12 72.2 12C72.1 12 72 12.2 72 12.3V15.1C72 15.2 72 15.3 72.1 15.3L75.5 19.4C75.6 19.5 75.7 19.5 75.8 19.5C75.9 19.5 76 19.5 76.1 19.4L85.4 7.8C85.4 7.7 85.5 7.7 85.5 7.6V4.8C85.3 4.6 85.2 4.5 85.1 4.5Z" fill="white"/>
<path d="M53.6 50.2H39.7C39.5 50.2 39.3 50.3 39.1 50.4L36 89.1C37.4 89.4 38.9 89.6 40.4 89.8C40.4 89.8 42.9 90 44.9 90C46.7 90 49.4 89.8 49.4 89.8C52.3 89.5 55.1 88.9 57.9 88.1L54.2 50.4C54.1 50.4 53.9 50.3 53.6 50.2Z" fill="#F8A41E"/>
<path d="M14.8 9L17.5 9.3C18.3 9.4 18.9 10.1 18.9 10.9L18.6 21.7C18.4 22.5 17.8 23 17 23L13.1 22.9H13C12.2 22.8 11.6 22 11.8 21.2L13.3 10.3C13.4 9.9 13.9 9 14.8 9Z" fill="black"/>
<path d="M66.4 66C64.9 56.8 55.7 51.2 55.3 51C55.1 50.9 54.9 50.9 54.8 51.1C54.7 51.3 54.8 51.5 54.9 51.6C55 51.7 64.2 57.3 65.6 66.1C66.5 71.4 67.3 78.7 67.8 83.7C68 83.6 68.3 83.4 68.5 83.3C68.1 78.2 67.2 71.2 66.4 66Z" fill="#B6685E"/>
<path d="M38.3 50.9C37.9 51.1 28.7 56.8 27.1 65.9C26.1 71.8 25.2 80.1 24.7 85.1C24.9 85.2 25.2 85.3 25.4 85.4C25.9 80.4 26.8 72 27.8 66C29.3 57.2 38.6 51.5 38.6 51.5C38.8 51.4 38.8 51.2 38.7 51C38.7 50.9 38.5 50.8 38.3 50.9Z" fill="#B6685E"/>
<path d="M17 60.7C17 60.5 16.8 60.3 16.6 60.3C16.4 60.3 16.2 60.5 16.2 60.7L15.5 79C15.7 79.2 16 79.4 16.2 79.6L17 60.7Z" fill="#B6685E"/>
<path d="M73.1 71.6C73.1 71.4 72.9 71.2 72.7 71.2C72.5 71.2 72.3 71.4 72.3 71.6L72 81C72.3 80.8 72.5 80.6 72.8 80.4L73.1 71.6Z" fill="#B6685E"/>
<path d="M13.5773 17.1013L13.3668 19.5923L16.8542 19.887L17.0647 17.396L13.5773 17.1013Z" fill="#F8A41E"/>
<path d="M14.1851 11.8544L13.9746 14.3454L17.462 14.6401L17.6725 12.1491L14.1851 11.8544Z" fill="#F8A41E"/>
<path d="M16.5 21.1L12.5 15.3C11 15.1 9.5 16.2 9.3 17.7L8.6 19.2C6.9 19.1 6.4 22 3.3 26.2C3.4 31.5 3.6 33.4 10.5 37.2L15.3 27.8L14.5 22.7L15.5 23.4C17 24.4 17.5 22.3 16.5 21.1Z" fill="#FFD9C8"/>
<path d="M8.2 22.2L11.9 25.7C12.5 26.6 13.6 27.2 14.6 26.9" stroke="#B6685E" stroke-width="0.75" stroke-linecap="round" stroke-linejoin="round"/>
<path d="M6.5 25.3L10.1 28.3L14.9 28.9" stroke="#B6685E" stroke-width="0.75" stroke-linecap="round" stroke-linejoin="round"/>
<path d="M9.5 18.4L14.2 22.6C14.4 22.8 14.5 23.1 14.9 23.2" stroke="#B6685E" stroke-width="0.75" stroke-linecap="round" stroke-linejoin="round"/>
<path d="M7.10001 34.8C8.70001 36.4 11.1 36.6 12.9 35.4" stroke="#B6685E" stroke-width="0.75" stroke-linecap="round" stroke-linejoin="round"/>
<path d="M10.1 28.3L10.2 29.9C10.3 30.6 9.7 31.3 9.1 31.4L8.2 31.5L5.8 30.3" stroke="#B6685E" stroke-width="0.75" stroke-linecap="round" stroke-linejoin="round"/>
<path d="M45.6 45.2C41.8 45 39.7 42.8 39.7 42.8C39.7 46.2 39.8 49.2 39.8 52.6C40 52.9 42.5 56.1 46.7 56.1C50.2 56.1 53.6 54.9 53.6 52.6C53.6 48.8 53.6 44.9 53.6 41.1C53.6 41.1 53.6 42.6 53.6 41.1C53.4 41.2 50.6 45 45.6 45.2Z" fill="#FFD9C8"/>
<path d="M40 43C40 43 46.3 48.9 53 41.6" stroke="#B6685E" stroke-width="0.75" stroke-linecap="round" stroke-linejoin="round"/>
</svg>
