<svg width="90" height="90" viewBox="0 0 90 90" fill="none" xmlns="http://www.w3.org/2000/svg">
<path d="M45 90C69.8528 90 90 69.8528 90 45C90 20.1472 69.8528 0 45 0C20.1472 0 0 20.1472 0 45C0 69.8528 20.1472 90 45 90Z" fill="#F8A41E"/>
<path d="M12.4001 57.3V72.3C12.4001 72.3 11.9001 74.7 14.8001 74.7H22.3001C22.3001 74.7 23.6001 74.8 23.6001 72.8V58.4C23.7001 58.4 12.1001 57 12.4001 57.3Z" fill="black"/>
<path d="M78.9 57.3V72.3C78.9 72.3 79.4 74.7 76.5 74.7H69C69 74.7 67.7 74.6 67.7 72.8V58.4C67.7 58.4 79.2 57 78.9 57.3Z" fill="black"/>
<path d="M73.6001 30.8L75.4001 29C76.1001 28.3 77.1001 27.9 78.2001 27.9H83.0001C83.0001 27.9 85.1001 27.9 85.1001 29.5V33.5C84.6001 34.3 83.8001 34.7 83.0001 34.8H73.1001L73.6001 30.8Z" fill="#353535"/>
<path d="M41 15.6C48.4 15.6 60.6 15.8 62.1 16.4C67.6 18.4 68.3 20 70 22.8C71.9 26 75.2 35.1 75.2 35.1C76.9 36.1 78.3 37.6 79.2 39.4C81 43 80.2 49 80.1 52.2C80.2 52.9 80.6 53.6 81.2 54C82.5 55 83 57.4 82.8 58.8C82.6 61.5 80.9 67.6 79.4 68C77.4 68.4 59.5 68.5 52.9 68.5H50.6H40" fill="#C4C4C4"/>
<path d="M17.2 30.8L15.4 29C14.7 28.3 13.7 27.9 12.6 27.9H7.90005C7.90005 27.9 5.80005 27.9 5.80005 29.5V33.5C6.30005 34.3 7.10005 34.7 7.90005 34.8H17.8L17.2 30.8Z" fill="#353535"/>
<path d="M45.3 15.6C37.9 15.6 30.2 15.8 28.7 16.4C23.2 18.4 22.5 20 20.8 22.8C19 26 15.6 35.1 15.6 35.1C13.9 36.1 12.5 37.6 11.6 39.4C9.79997 43 10.6 49 10.7 52.2C10.6 52.9 10.2 53.6 9.59997 54C8.29997 55 7.89997 57.4 7.99997 58.8C8.19997 61.5 9.89997 67.6 11.4 68C13.4 68.4 31.3 68.5 37.9 68.5H40.3H46.2" fill="#C4C4C4"/>
<path d="M10.5001 43.7H20.1001C21.8001 44.1 23.2001 45.2 24.1001 46.6C24.8001 47.6 25.4001 48.7 25.7001 49.9C25.8001 50.4 25.5001 51 25.0001 51.1C24.9001 51.1 24.8001 51.1 24.7001 51.1H10.6001C10.6001 51.1 10.3001 44.9 10.5001 43.7Z" fill="#E03426"/>
<path d="M7.90015 58.8C9.40015 58.4 10.9001 58.8 12.1001 59.7C14.5001 61.3 14.0001 61.6 19.0001 61.3C24.0001 61 46.0001 61.3 46.0001 61.3V68.5H12.7001C12.7001 68.5 9.80015 68.7 8.70015 64.8C8.10015 62.8 7.90015 60.8 7.90015 58.8Z" fill="#353535"/>
<path d="M10.5 46.1H15.9C16.2 46.1 16.6 46.3 16.8 46.6L17 46.9C17.3 47.4 17.1 48 16.7 48.2C16.5 48.3 16.4 48.3 16.2 48.3H10.7C10.6 48.3 10.5 46.1 10.5 46.1Z" fill="white"/>
<path d="M46.2001 40.3C33.5001 40.3 19.5001 40.2 18.3001 40.2C14.0001 40.2 15.6001 37.2 15.6001 37.2L18.8001 34.3L23.9001 22.2C26.0001 17.7 32.2001 17.1 33.4001 17.1H46.5001" fill="#353535"/>
<path d="M44.8001 40.3C57.5001 40.3 71.5001 40.2 72.7001 40.2C77.0001 40.2 75.4001 37.2 75.4001 37.2L72.3001 34.3L67.0001 22.2C64.9001 17.7 58.7001 17.1 57.5001 17.1H44.4001" fill="#353535"/>
<path d="M80.3 43.7H70.7C69 44.1 67.6 45.2 66.7 46.6C66 47.6 65.4 48.7 65.1 49.9C65 50.4 65.3 51 65.8 51.1C65.9 51.1 66 51.1 66 51.1H80.2C80.2 51.1 80.5 44.9 80.3 43.7Z" fill="#E03426"/>
<path d="M82.9001 58.8C81.4001 58.4 79.9 58.8 78.7 59.7C76.3 61.3 76.8001 61.6 71.8001 61.3C66.8001 61 44.8 61.3 44.8 61.3V68.5H78.2C78.2 68.5 81.1 68.7 82.2 64.8C82.7 62.8 83 60.8 82.9001 58.8Z" fill="#353535"/>
<path d="M80.3001 46.1H75.0001C74.7001 46.1 74.3001 46.3 74.1001 46.6L73.9001 46.9C73.6001 47.4 73.8001 48 74.2001 48.2C74.4001 48.3 74.5001 48.3 74.7001 48.3H80.2001C80.3001 48.3 80.3001 46.1 80.3001 46.1Z" fill="white"/>
<path d="M58.7001 43.7H32.1001C31.0001 43.7 30.1001 44.6 30.1001 45.7C30.1001 46 30.2001 46.4 30.4001 46.7L32.7001 50.5C33.1001 51.1 33.7001 51.5 34.4001 51.5H56.4001C57.1001 51.5 57.7001 51.1 58.1001 50.5L60.4001 46.7C60.9001 45.8 60.6001 44.6 59.7001 44C59.4001 43.8 59.0001 43.7 58.7001 43.7Z" fill="#353535"/>
<path d="M15.6001 54.1C15.6001 54.1 17.5001 56.8 22.8001 56.8H68.0001C73.3001 56.8 75.2001 54.1 75.2001 54.1C75.4001 54.3 15.4001 54.3 15.6001 54.1Z" fill="#353535"/>
<path d="M45.5001 18.8H33.5001C29.5001 18.9 25.9001 21.3 24.3001 25C23.7001 26.3 22.4001 29.8 21.7001 31.7C21.5001 32.2 21.8001 32.7 22.3001 32.9C22.4001 32.9 22.5001 33 22.6001 33H45.4001V18.8H45.5001Z" fill="black"/>
<path d="M45.3 18.8H57.3C61.3 18.9 64.9 21.3 66.5 25C67.1 26.3 68.4 29.8 69.1 31.7C69.3 32.2 69 32.7 68.5 32.9C68.4 32.9 68.3 33 68.2 33H45.3V18.8Z" fill="black"/>
<path d="M59.1 43.7C58 42.6 56.6 42 55 41.9H35.6C34.1 41.9 32.6 42.6 31.5 43.7C31.6 43.7 59.1 43.7 59.1 43.7Z" fill="white"/>
<path d="M50.5 18.8H40.3V19.8H50.5V18.8Z" fill="#E03426"/>
<path d="M53.7001 44.9H37.9001V50.5H53.7001V44.9Z" fill="#C4C4C4"/>
</svg>
