<svg width="90" height="90" viewBox="0 0 90 90" fill="none" xmlns="http://www.w3.org/2000/svg">
<path d="M45 90C69.8528 90 90 69.8528 90 45C90 20.1472 69.8528 0 45 0C20.1472 0 0 20.1472 0 45C0 69.8528 20.1472 90 45 90Z" fill="#E03426"/>
<path d="M0 90C0 87.9 0 86.7 0 84.6L16.6 65.2C15.2 52.1 21.5 44.5 22.3 35C21.9 31.9 23.8 30 25.6 32.4C27.2 36.5 28.5 41.6 28.3 51.3L63.6 29.5C67.9 27.8 69.7 32.5 65.7 35.5L63.2 37.8L63.8 42L67.8 42.4C69.6 43.2 70 46.9 68.6 47.9L64.3 50L68.7 50.3C70.4 51.1 70.9 54.8 68.7 56.3L63.8 57.8L63.3 60.3L67.1 60.6C69 62 67.9 66.5 66.3 67.1L58.7 69C50.9 73.8 43.2 78.5 35.7 78.5C33.2 82.7 31.1 85.8 28.6 90C19.2 90 9.4 90 0 90Z" fill="#FFD9C8"/>
<path d="M29.2 13.6H61C62.7 13.6 64 14.9 64 16.6V66.5C64 68.2 62.7 69.5 61 69.5H29.2C27.5 69.5 26.2 68.2 26.2 66.5V16.6C26.2 15 27.6 13.6 29.2 13.6Z" fill="#F8A41E"/>
<path d="M31 17.2H59.2C59.8 17.2 60.2 17.6 60.2 18.2V24.2C60.2 24.8 59.8 25.2 59.2 25.2H31C30.4 25.2 30 24.8 30 24.2V18.2C30 17.7 30.4 17.2 31 17.2Z" fill="#1E1E1E"/>
<path d="M31 28.7H37C37.6 28.7 38 29.1 38 29.7V35.7C38 36.3 37.6 36.7 37 36.7H31C30.4 36.7 30 36.3 30 35.7V29.7C30 29.1 30.4 28.7 31 28.7Z" stroke="#1E1E1E" stroke-width="0.75" stroke-linecap="round" stroke-linejoin="round"/>
<path d="M42.2 28.7H48.2C48.8 28.7 49.2 29.1 49.2 29.7V35.7C49.2 36.3 48.8 36.7 48.2 36.7H42.2C41.6 36.7 41.2 36.3 41.2 35.7V29.7C41.2 29.1 41.6 28.7 42.2 28.7Z" stroke="#1E1E1E" stroke-width="0.75" stroke-linecap="round" stroke-linejoin="round"/>
<path d="M53.2 28.7H59.2C59.8 28.7 60.2 29.1 60.2 29.7V35.7C60.2 36.3 59.8 36.7 59.2 36.7H53.2C52.6 36.7 52.2 36.3 52.2 35.7V29.7C52.2 29.1 52.7 28.7 53.2 28.7Z" stroke="#1E1E1E" stroke-width="0.75" stroke-linecap="round" stroke-linejoin="round"/>
<path d="M31 58H37C37.6 58 38 58.4 38 59V65C38 65.6 37.6 66 37 66H31C30.4 66 30 65.6 30 65V59C30 58.4 30.4 58 31 58Z" fill="#B6685E"/>
<path d="M42.2 58H59.2C59.8 58 60.2 58.4 60.2 59V65C60.2 65.6 59.8 66 59.2 66H42.2C41.6 66 41.2 65.6 41.2 65V59C41.2 58.4 41.6 58 42.2 58Z" fill="#1E1E1E"/>
<path d="M31 38.1H37C37.6 38.1 38 38.5 38 39.1V45.1C38 45.7 37.6 46.1 37 46.1H31C30.4 46.1 30 45.7 30 45.1V39.1C30 38.6 30.4 38.1 31 38.1Z" stroke="#1E1E1E" stroke-width="0.75" stroke-linecap="round" stroke-linejoin="round"/>
<path d="M42.2 38.1H48.2C48.8 38.1 49.2 38.5 49.2 39.1V45.1C49.2 45.7 48.8 46.1 48.2 46.1H42.2C41.6 46.1 41.2 45.7 41.2 45.1V39.1C41.2 38.6 41.6 38.1 42.2 38.1Z" stroke="#1E1E1E" stroke-width="0.75" stroke-linecap="round" stroke-linejoin="round"/>
<path d="M53.2 38.1H59.2C59.8 38.1 60.2 38.5 60.2 39.1V45.1C60.2 45.7 59.8 46.1 59.2 46.1H53.2C52.6 46.1 52.2 45.7 52.2 45.1V39.1C52.2 38.6 52.7 38.1 53.2 38.1Z" stroke="#1E1E1E" stroke-width="0.75" stroke-linecap="round" stroke-linejoin="round"/>
<path d="M31 47.5H37C37.6 47.5 38 47.9 38 48.5V54.5C38 55.1 37.6 55.5 37 55.5H31C30.4 55.5 30 55.1 30 54.5V48.5C30 48 30.4 47.5 31 47.5Z" stroke="#1E1E1E" stroke-width="0.75" stroke-linecap="round" stroke-linejoin="round"/>
<path d="M42.2 47.5H48.2C48.8 47.5 49.2 47.9 49.2 48.5V54.5C49.2 55.1 48.8 55.5 48.2 55.5H42.2C41.6 55.5 41.2 55.1 41.2 54.5V48.5C41.2 48 41.6 47.5 42.2 47.5Z" stroke="#1E1E1E" stroke-width="0.75" stroke-linecap="round" stroke-linejoin="round"/>
<path d="M53.2 47.5H59.2C59.8 47.5 60.2 47.9 60.2 48.5V54.5C60.2 55.1 59.8 55.5 59.2 55.5H53.2C52.6 55.5 52.2 55.1 52.2 54.5V48.5C52.2 48 52.7 47.5 53.2 47.5Z" stroke="#1E1E1E" stroke-width="0.75" stroke-linecap="round" stroke-linejoin="round"/>
<path d="M63.9 49.7C63.9 49.7 60.9 50.1 60.3 50.1C57.4 50.1 57 45.3 59.5 44.3L64.1 42.2L64.8 49.7H63.9Z" fill="#FFD9C8"/>
<path d="M64.6 57.3C64.6 57.3 61.6 57.7 61 57.7C58.1 57.7 57.7 52.9 60.2 51.9L64.4 50.1L65.5 57.2L64.6 57.3Z" fill="#FFD9C8"/>
<path d="M64.3 65.9C64.3 65.9 62 65 61.6 64.8C59.5 63.7 61 60.2 63.1 60.4L67.3 60.7L64.8 66.2L64.3 65.9Z" fill="#FFD9C8"/>
<path d="M78.2 23.6C84.7169 23.6 90 18.317 90 11.8C90 5.28304 84.7169 0 78.2 0C71.683 0 66.4 5.28304 66.4 11.8C66.4 18.317 71.683 23.6 78.2 23.6Z" fill="#F8A41E"/>
<path d="M71.9 8.99999C71.9 8.59999 72 8.29999 72.1 7.89999C72.2 7.59999 72.4 7.29999 72.7 7.09999C72.9 6.89999 73.2 6.69999 73.5 6.49999C74.2 6.19999 74.9 6.19999 75.6 6.49999C75.9 6.59999 76.2 6.79999 76.5 7.09999C76.8 7.29999 77 7.59999 77.1 7.89999C77.4 8.59999 77.4 9.29999 77.1 9.99999C77 10.3 76.8 10.6 76.6 10.8C76.3 11 76 11.2 75.7 11.4C75.4 11.5 75 11.6 74.7 11.6C74 11.6 73.3 11.4 72.7 10.8C72.5 10.6 72.3 10.3 72.1 9.89999C72 9.69999 71.9 9.29999 71.9 8.99999ZM73.6 17L81 6.49999H82.9L75.4 17.1H73.6V17ZM73.6 8.99999C73.6 9.29999 73.7 9.59999 73.9 9.79999C74.3 10.2 75 10.2 75.4 9.79999C75.6 9.59999 75.7 9.29999 75.7 8.99999C75.7 8.69999 75.6 8.39999 75.4 8.19999C75 7.79999 74.3 7.79999 73.9 8.19999C73.7 8.39999 73.6 8.69999 73.6 8.99999ZM79.1 14.6C79.1 14.3 79.2 13.9 79.3 13.6C79.4 13.3 79.6 13 79.9 12.7C80.1 12.5 80.4 12.3 80.8 12.1C81.1 12 81.5 11.9 81.8 11.9C82.1 11.9 82.5 12 82.8 12.1C83.1 12.2 83.4 12.4 83.7 12.7C84 12.9 84.2 13.2 84.3 13.6C84.4 13.9 84.5 14.3 84.5 14.6C84.5 15 84.4 15.3 84.3 15.7C84.2 16 84 16.3 83.7 16.5C83.4 16.7 83.2 16.9 82.8 17.1C81.8 17.5 80.6 17.3 79.8 16.5C79.6 16.3 79.4 16 79.2 15.6C79.1 15.3 79 14.9 79.1 14.6ZM80.7 14.6C80.7 14.9 80.8 15.2 81 15.4C81.2 15.6 81.5 15.7 81.8 15.7C82.1 15.7 82.4 15.6 82.6 15.4C82.8 15.2 82.9 14.9 82.9 14.6C82.9 14.3 82.8 14 82.6 13.8C82.4 13.6 82.1 13.5 81.8 13.5C81.5 13.5 81.2 13.6 81 13.8C80.8 14 80.7 14.3 80.7 14.6Z" fill="white"/>
</svg>
