<svg width="90" height="90" viewBox="0 0 90 90" fill="none" xmlns="http://www.w3.org/2000/svg">
<g clip-path="url(#clip0_35_481)">
<path d="M45 90C69.8528 90 90 69.8528 90 45C90 20.1472 69.8528 0 45 0C20.1472 0 0 20.1472 0 45C0 69.8528 20.1472 90 45 90Z" fill="#E03426"/>
<path d="M64.4001 54.2L58.3 62.7C61.7 63.9 64.6001 65.1 66.9001 66C69.8001 67.2 71.7 70 71.7 73.1V79V79.1L74.1 79.4C78.6 75.5 82.4 70.8 85.2 65.4C84.8 62.1 84.2 59.6 83.2 58.3L64.4001 54.2Z" fill="black"/>
<path d="M21.3 76.2C18.2 75.6 15 75.4 11.8 75.4C18.9 83.2 28.8 88.4 39.8 89.7C36.7 84.9 30.6 77.9 21.3 76.2Z" fill="black"/>
<path d="M54.5 87.6C53.9 87.6 53.4 87.6 52.8 87.6C46.1 87.3 44.7 80.8 32.2 74.3C31.1 73.7 29.9 73.2 28.8 72.8C21.3 70 13.1 70.2 8 70.7C9.1 72.2 10.2 73.7 11.4 75.1C11.5 75.2 11.6 75.3 11.7 75.5C14.9 75.4 18 75.7 21.2 76.3C30.5 78.1 36.6 85 39.7 89.8C39.8 89.8 40 89.8 40.1 89.9C41.7 90.1 43.3 90.2 44.9 90.2C46.1 90.2 47.3 90.1 48.5 90C50.5 89.8 52.4 89.6 54.3 89.2C56 88.8 57.7 88.4 59.3 87.8C57.7 87.7 56.1 87.7 54.5 87.6Z" fill="#E2A257"/>
<path d="M71.7 79.1C71.7 79.1 71.7 79 71.7 79.1V79.1Z" stroke="#E03426" stroke-miterlimit="10"/>
<path d="M71.7001 79.1V73.1C71.7001 70 69.8001 67.1 66.9001 66C64.6001 65.1 61.7001 63.9 58.3001 62.7C48.1001 59 34.2001 54.6 24.2001 54C6.5001 53.1 0.900098 53.5 0.900098 53.5C21.6001 26.3 36.3001 9.20001 49.3001 4.70001L64.1001 4.30001L66.3001 4.20001L67.0001 2.00001C67.0001 2.00001 50.6001 -0.199993 45.5001 -0.0999934C41.0001 0.200007 30.9001 6.8 19.9001 16.4C21.2001 15.3 22.5001 14.3 23.5001 13.4C27.3001 10.2 29.2001 12.5 25.6001 16.2C15.7001 26.2 4.9001 39.2 0.100098 45.2C0.100098 52.4 1.9001 59.2 4.9001 65.3C5.9001 67.2 6.9001 69 8.2001 70.8C13.3001 70.3 21.5001 70.2 29.0001 72.9C30.2001 73.3 31.3001 73.8 32.4001 74.4C44.9001 80.9 46.3001 87.4 53.0001 87.7C53.6001 87.7 54.1001 87.7 54.7001 87.7C56.3001 87.7 57.9001 87.7 59.5001 87.7C61.9001 86.9 64.1001 85.9 66.3001 84.8C68.4001 83.7 70.3001 82.5 72.2001 81.1C72.9001 80.6 73.6001 80 74.3001 79.5L71.7001 79.1Z" fill="#F8A41E"/>
<path d="M23.5 13.4C22.5 14.3 21.2 15.3 19.9 16.4C14.5 20.9 7.1 27.5 1.2 34.8C1.2 34.9 1.2 35 1.1 35C0.4 38.3 0 41.6 0 45V45.1C4.8 39.2 15.6 26.1 25.5 16.1C29.1 12.5 27.3 10.1 23.5 13.4Z" fill="#E2A257"/>
<path d="M30.7 52.4C30.2 53.1 29.5 53.7 29.2 54.5C29.2 54.5 29.9999 54.6 30.2999 54.7C31.3999 54.9 31.6 54.9 31.6 54.9C31.7 53.5 31.6 54.8 31.7 53.4C31.3 53.1 31 52.8 30.7 52.4Z" fill="#E2A257"/>
<path d="M71.2999 70.8H65.3999C64.6999 70.8 63.9999 71.1 63.4999 71.6L60.3999 74.9C59.3999 75.9 59.4999 77.6 60.4999 78.5C60.9999 78.9 61.5999 79.2 62.1999 79.2H72.2999C72.2999 79.2 72.1999 70.8 71.2999 70.8Z" fill="white"/>
<path d="M34.8001 46.1L31.8001 48.1C31.2001 48.7 31.0001 49.5 31.0001 50.3L31.1001 51.6C30.7001 51.8 30.4001 52.1 30.2001 52.4C30.0001 52.9 30.5001 53.5 30.5001 53.5C30.9001 54 31.7001 54.1 32.2001 53.8L33.1001 53.3L34.8001 53.8C35.5001 54 36.3001 53.9 37.0001 53.5L44.2001 48.9C44.8001 48.5 45.0001 47.7 44.6001 47.1L42.1001 42.7C41.7001 42.1 40.9001 41.8 40.3001 42.2L34.8001 46.1Z" fill="black"/>
<path d="M43.3 45.2L43.5 42.5C43.5 42.1 43.8001 41.7 44.2001 41.5L55.2001 37.4C55.9001 37.1 56.5 36.6 57 36.1L65.9001 26L72.1 36.3L71.5 33.9L73 37.5L59.8 44.4C59.4 44.6 59.1 44.7 58.7001 44.8C54.4001 45.8 50.1 46.5 45.8 46.8C44.6 46.8 43.7 46.2 43.3 45.2Z" fill="#E2A257"/>
<path d="M83.0999 58.6L59.6999 63.5C58.6999 62.5 58.1999 61.1 58.2999 59.7C58.2999 59.1 60.7999 57.6 60.7999 56.9C61.3999 47.2 62.3999 29.4 66.7999 26.7C68.0999 25.7 69.4999 24.9 70.9999 24.1C72.4999 23.8 73.3999 26.5 73.3999 26.5C81.3999 28.7 82.1999 31.2 83.0999 58.6Z" fill="#E2A257"/>
<path d="M71 24.1L68 12.6L56.2 16.5C56.3 20.1 58.5 23.5 59.4 24.9C60.4 26.3 61.1999 27.4 63.2999 27L65.0999 26.6L66.8 30.4H66.9L71 24.1Z" fill="#FFD9C8"/>
<path d="M56.2 16.4C59.2 20.6 61.3999 15.8 65.5999 19.4C65.0999 18.9 66.1 14.3 68 17.1C69 18.4 68.5999 20.9 68.5999 20.9C69.0999 22.2 69.2 22.1 70.5 22.1C71.3 19.3 70.9 16.3 69.4 13.8C68 11 65 10.5 65 10.5C60.9 9.80003 57 12.4 56.2 16.4Z" fill="black"/>
<path d="M59.3 24.6L62.4001 24.1C62.4001 24.1 61.8 25.8 60.8 25.9C59.8 26 59.3 24.6 59.3 24.6Z" fill="white"/>
<path d="M44.2001 42.6L35.7001 43.7C35.3001 43.8 35 44 34.8 44.3L32.3 47.7L37.6 46.6C38.3 46.4 39.0001 46.8 39.2001 47.6C39.2001 47.7 39.2001 47.9 39.2001 48L39 50.5C38.9 51 39.3001 51.6 39.9001 50.9L43.6 46.9L45.9001 45L44.2001 42.6Z" fill="#FFD9C8"/>
<path d="M58 20.6L57.8 23.4C57.8 23.4 58.2 23.8 59.1 23.5C59.9 23.3 58 20.6 58 20.6Z" fill="#FFD9C8"/>
<path d="M58.8999 64L56.9999 65C56.2999 65.4 55.4999 65.5 54.6999 65.3L51.3999 64.5L49.4999 63.8L47.6999 63.4C46.1999 63 46.9999 62.4 47.4999 62.4C46.0999 62.3 44.3999 61.9 45.0999 61C44.3999 60.5 44.5999 60.3 45.4999 60.3L48.6999 59.7L55.4999 61.2L59.1999 59.5L60.4999 62.7L58.8999 64Z" fill="#FFD9C8"/>
<path d="M60.7 63.2L76.0999 56.4C77.0999 56 77.8 55.1 78 54.1L81.5999 40.5" stroke="black" stroke-width="0.25" stroke-linecap="round" stroke-linejoin="round"/>
<path d="M50.6999 62.9L49.6999 62.6L47.3999 62.5" stroke="#E2A257" stroke-width="0.25" stroke-linecap="round" stroke-linejoin="round"/>
<path d="M50.1001 61.2L45.1001 61.1" stroke="#E2A257" stroke-width="0.25" stroke-linecap="round" stroke-linejoin="round"/>
<path d="M36.5999 44.4L34.2999 45.6L33.2 46.6" stroke="#E2A257" stroke-width="0.25" stroke-linecap="round" stroke-linejoin="round"/>
<path d="M59.6001 20.7C59.8001 21.1 59.9001 20.9 60.1001 20.8C60.3001 20.7 60.6001 20.8 60.4001 20.4C60.2001 20 59.9001 19.7 59.6001 19.8C59.5001 19.9 59.4001 20.3 59.6001 20.7Z" fill="black"/>
<path d="M57.4999 21.6C57.5999 21.9 57.6999 21.7 57.8999 21.6C58.0999 21.5 58.2999 21.6 58.0999 21.3C57.9999 21 57.6999 20.8 57.5999 20.9C57.4999 21 57.2999 21.2 57.4999 21.6Z" fill="black"/>
<path d="M66.5999 22.2C66.5999 22.2 66.9999 25 65.3999 26.4" stroke="#E2A257" stroke-width="0.25" stroke-linecap="round" stroke-linejoin="round"/>
<path d="M58.8 23.6L59.3 23.2" stroke="#E2A257" stroke-width="0.25" stroke-linecap="round" stroke-linejoin="round"/>
<path d="M76.5001 28.8C74.0001 29.2 72.1001 31.2 71.9001 33.8C71.4001 37.1 70.6001 44.2 70.3001 47.5C70.2001 48.7 69.5001 49.8 68.6001 50.6L61.6001 56.1" stroke="black" stroke-width="0.25" stroke-linecap="round" stroke-linejoin="round"/>
<path d="M62 42.9C62.4 38.2 64.4 35.9 65 29.6L64.8 27.5" stroke="black" stroke-width="0.25" stroke-linecap="round" stroke-linejoin="round"/>
<path d="M65 29.6L65.9 33.4L66.8 31.8L69.2 34L73.3 26.7" stroke="black" stroke-width="0.25" stroke-linecap="round" stroke-linejoin="round"/>
</g>
<defs>
<clipPath id="clip0_35_481">
<rect width="90" height="90" fill="white"/>
</clipPath>
</defs>
</svg>
