<svg width="93" height="93" viewBox="0 0 93 93" fill="none" xmlns="http://www.w3.org/2000/svg">
<path d="M44.0131 90.1583C68.3208 91.3359 88.9808 72.5852 90.1583 48.2775C91.3359 23.9697 72.5852 3.30978 48.2775 2.1322C23.9697 0.954618 3.30979 19.7053 2.13221 44.0131C0.954625 68.3208 19.7053 88.9808 44.0131 90.1583Z" fill="#E03426"/>
<path d="M56.0342 32.4247C58.9061 32.4247 61.2342 30.0966 61.2342 27.2248C61.2342 24.3529 58.9061 22.0247 56.0342 22.0247C53.1623 22.0247 50.8342 24.3529 50.8342 27.2248C50.8342 30.0966 53.1623 32.4247 56.0342 32.4247Z" stroke="#8CACD2" stroke-miterlimit="10"/>
<path d="M91.9342 92.1248V72.1248L81.1342 66.8248C80.0342 66.3248 78.7342 66.7248 78.1342 67.7248L68.4342 84.8248C67.8342 85.9248 68.2342 87.3248 69.3342 87.9248C69.3342 87.9248 69.3342 87.9248 69.4342 87.9248L77.8342 92.1248" fill="#2856A6"/>
<path d="M14.9342 6.32474L4.4342 21.8247L31.0342 29.3247H50.3342L54.4342 31.0247L56.0342 19.2247L42.9342 8.82474L25.2342 12.5247L14.9342 6.32474Z" fill="#FFD9C8"/>
<path d="M49.2343 33.2248L51.3343 47.9247C51.4343 48.5247 51.9343 48.9247 52.5343 48.9247L55.3343 48.7247C55.9343 48.6247 56.3343 48.2248 56.3343 47.6248L56.7343 33.7248C56.7343 33.1248 56.3343 32.6248 55.7343 32.6248L50.4343 32.0247C49.8343 32.0247 49.2343 32.4247 49.2343 33.0247C49.2343 33.1247 49.2343 33.1248 49.2343 33.2248Z" fill="#0F2043"/>
<path d="M55.018 34.6702L51.5327 34.9917L51.7623 37.4812L55.2476 37.1597L55.018 34.6702Z" fill="#F8A41E"/>
<path d="M55.2181 39.0713L51.7328 39.3928L51.9624 41.8823L55.4477 41.5609L55.2181 39.0713Z" fill="#F8A41E"/>
<path d="M47.4342 26.5247L41.2342 44.0247C41.0342 44.6247 41.3342 45.1247 41.8342 45.4247L45.6342 47.0247C46.2342 47.2247 46.8342 47.0247 47.1342 46.4247L54.8342 30.3247C55.1342 29.8247 54.8342 29.1247 54.3342 28.8247L49.0342 25.9247C48.5342 25.6247 47.8342 25.8247 47.5342 26.3247C47.4342 26.4247 47.4342 26.4247 47.4342 26.5247Z" fill="#0F2043"/>
<path d="M48.7461 29.1827L47.7914 31.4932L51.0261 32.8299L51.9808 30.5194L48.7461 29.1827Z" fill="#F8A41E"/>
<path d="M46.6943 33.954L45.7395 36.2645L48.9742 37.6012L49.929 35.2907L46.6943 33.954Z" fill="#F8A41E"/>
<path d="M47.4341 26.5247L41.2341 23.6247C40.6341 23.3247 40.4341 22.6247 40.7341 22.1247C40.8341 21.9247 41.0341 21.7247 41.2341 21.6247L45.9341 19.3247L50.5341 27.6247L47.4341 26.5247Z" fill="#E03426"/>
<path d="M45.2342 17.0248L48.6342 23.6248L48.8342 25.4248C48.9342 26.7248 49.7342 27.8248 50.9342 28.3248L52.0342 28.8248L53.8342 15.6248L44.0342 6.92476C43.1342 6.12476 41.8342 5.92476 40.6342 6.32476L22.0342 12.5248L45.2342 17.0248Z" fill="#FFD9C8"/>
<path d="M76.5342 66.5248L62.8342 54.4248L31.0342 44.3248C28.7342 43.3248 28.1342 46.3248 30.0342 47.6248L42.5342 52.5248L41.5342 53.1248L27.9342 48.6248C25.2342 47.4248 24.2342 50.7248 26.5342 52.3248L28.4342 53.1248C28.4342 54.6248 29.0342 56.1248 30.0342 57.2248C31.1342 58.3248 34.3342 60.4248 36.4342 62.1248C36.6342 62.3248 37.2342 65.4248 43.8342 68.3248L62.5342 74.2248L73.4342 82.6248L81.4342 69.3248L76.5342 66.5248Z" fill="#E2A257"/>
<path d="M72.6342 63.2248C72.6342 63.2248 64.2342 52.8248 63.4342 50.9248C62.1342 47.7248 61.1342 44.4248 60.5342 41.1248H60.2342C59.2342 41.3248 57.9342 41.6248 57.6342 44.1248L57.8342 55.2248L72.6342 63.2248Z" fill="#E2A257"/>
<path d="M28.5342 53.5247L38.8342 59.1247" stroke="#927228" stroke-width="0.75" stroke-linecap="round" stroke-linejoin="round"/>
<path d="M36.9342 62.4247L40.4342 64.6247" stroke="#927228" stroke-width="0.75" stroke-linecap="round" stroke-linejoin="round"/>
<path d="M57.9342 52.7247L62.0342 52.5247" stroke="#927228" stroke-width="0.75" stroke-linecap="round" stroke-linejoin="round"/>
<path d="M51.9342 26.7248L53.6342 18.0247" stroke="#AC958A" stroke-width="0.75" stroke-linecap="round" stroke-linejoin="round"/>
<path d="M48.8342 23.2248L48.4342 18.5247L45.9342 19.2248" stroke="#AC958A" stroke-width="0.75" stroke-linecap="round" stroke-linejoin="round"/>
<path d="M40.6343 26.9248L40.2343 22.1248L37.7343 22.9248" stroke="#AC958A" stroke-width="0.75" stroke-linecap="round" stroke-linejoin="round"/>
<path d="M42.3342 8.82474L51.5342 13.9247" stroke="#AC958A" stroke-width="0.75" stroke-linecap="round" stroke-linejoin="round"/>
</svg>
