<svg width="201" height="74" viewBox="0 0 201 74" fill="none" xmlns="http://www.w3.org/2000/svg">
<path d="M124.228 19.3412C123.076 18.5136 113.049 11.4561 103.261 7.09416C102.075 6.56849 100.786 6.30005 99.4172 6.30005C98.9722 6.30005 98.5615 6.5573 98.379 6.95994C98.1966 7.36258 98.2764 7.83234 98.573 8.16788L110.174 20.8622C110.391 21.0973 110.688 21.2313 111.007 21.2313C115.388 21.2874 121.787 21.3769 123.464 21.4215C123.532 21.4327 123.601 21.4438 123.669 21.4438C124.947 21.4438 125.084 20.661 125.084 20.3254C125.084 19.7774 125.084 19.4978 124.228 19.3412ZM16.0412 33.8365H8.83173C7.01795 33.8365 5.54639 35.2794 5.54639 37.0577V40.8829C5.54639 42.0236 6.13958 43.0638 7.14344 43.6454C7.66817 43.9474 8.23855 44.104 8.82032 44.104C9.35648 44.104 9.89264 43.9698 10.3832 43.7125L17.6041 39.8875C18.6649 39.3282 19.3266 38.2432 19.3266 37.0577C19.3266 35.2794 17.8551 33.8365 16.0412 33.8365ZM193.582 39.8314C192.544 37.0577 187.376 33.8365 184.775 33.8365H183.612C182.094 33.8365 180.817 34.7538 180.36 36.163C179.893 37.5947 180.406 39.0821 181.662 39.9433C183.155 40.9835 184.536 42.1244 185.745 43.3211C186.406 43.9809 187.274 44.3389 188.198 44.3389H190.377C191.495 44.3389 192.531 43.8021 193.172 42.9072C193.81 42.0236 193.97 40.8717 193.582 39.8314Z" fill="#E03426"/>
<path d="M142.162 50.7387H61.0432C60.4157 50.7387 59.9025 50.2355 59.9025 49.6203C59.9025 49.0052 60.4157 48.5018 61.0432 48.5018H142.173C142.801 48.5018 143.314 49.0052 143.314 49.6203C143.314 50.2355 142.8 50.7387 142.162 50.7387ZM142.722 64.3287H60.4741C59.5273 64.3287 58.7629 63.5793 58.7629 62.651C58.7629 61.7226 59.5273 60.9733 60.4741 60.9733H142.733C143.68 60.9733 144.444 61.7226 144.444 62.651C144.444 63.5793 143.669 64.3287 142.722 64.3287ZM83.3087 34.254H74.9242C74.2967 34.254 73.7835 33.7506 73.7835 33.1355C73.7835 32.5203 74.2967 32.0171 74.9242 32.0171H83.3087C83.9361 32.0171 84.4493 32.5203 84.4493 33.1355C84.4493 33.7506 83.9475 34.254 83.3087 34.254Z" fill="#353535"/>
<path d="M68.4413 56.8653C67.814 56.8653 67.3005 56.3621 67.3005 55.7468V29.083C67.3005 28.4678 67.814 27.9646 68.4413 27.9646C69.0688 27.9646 69.5821 28.4678 69.5821 29.083V55.7468C69.5821 56.3621 69.0688 56.8653 68.4413 56.8653ZM116.753 31.0403H111.027C108.506 31.0403 106.464 29.0383 106.464 26.5665V23.6809C106.464 21.2091 108.506 19.207 111.027 19.207H124.385C125.012 19.207 125.525 19.7104 125.525 20.3255C125.525 20.9406 125.012 21.4439 124.385 21.4439H111.027C109.772 21.4439 108.745 22.4505 108.745 23.6809V26.5665C108.745 27.7968 109.772 28.8034 111.027 28.8034H116.753C117.472 28.8034 118.168 28.4678 118.59 27.8974L118.715 27.7297C119.571 26.5889 120.951 25.9065 122.388 25.9065H126.256C126.883 25.9065 127.396 26.4099 127.396 27.025C127.396 27.6402 126.883 28.1434 126.256 28.1434H122.388C121.67 28.1434 120.974 28.4791 120.552 29.0494L120.426 29.2171C119.571 30.358 118.191 31.0403 116.753 31.0403Z" fill="#353535"/>
<path d="M17.8869 63.9437C17.7728 63.9437 17.6587 63.9326 17.5447 63.9102L5.94329 61.5614C2.49824 60.8792 0 57.8929 0 54.4481V49.1017C0 47.9609 0.285187 46.809 0.809929 45.7911L4.22075 39.237L8.35026 30.6921C8.50997 26.9787 11.5672 23.3661 15.7879 21.9904C30.1156 17.2594 62.9463 19.9662 64.3382 20.0779L100.796 23.1202C101.743 23.1984 102.439 24.0148 102.359 24.9321C102.279 25.8492 101.435 26.5427 100.511 26.4642L64.0414 23.4221C63.7106 23.3998 30.5264 20.6595 16.8716 25.167C13.9741 26.1175 11.7269 28.7012 11.7611 31.05C11.7611 31.3072 11.7041 31.5644 11.6014 31.7993L7.30078 40.7135L3.86713 47.3123C3.57054 47.8603 3.42224 48.4755 3.42224 49.0906V54.4368C3.42224 56.2935 4.76832 57.904 6.62773 58.2731L18.2406 60.6219C19.1645 60.8121 19.7578 61.6956 19.5753 62.6016C19.4041 63.3957 18.6854 63.9437 17.8869 63.9437ZM190.058 50.7387H186.02C185.393 50.7387 184.879 50.2355 184.879 49.6203C184.879 49.0052 185.393 48.5018 186.02 48.5018H190.058C190.686 48.5018 191.199 49.0052 191.199 49.6203C191.199 50.2355 190.696 50.7387 190.058 50.7387ZM199.288 73.9999H2.04235C1.09554 73.9999 0.331237 73.2506 0.331237 72.3222C0.331237 71.394 1.09554 70.6445 2.04235 70.6445H199.288C200.235 70.6445 201 71.394 201 72.3222C201 73.2506 200.235 73.9999 199.288 73.9999Z" fill="#353535"/>
<path d="M185.398 64.1029C184.463 64.1029 183.698 63.3535 183.687 62.4363C183.675 61.5079 184.44 60.7586 185.387 60.7475L193.565 60.6914C195.779 60.6914 197.569 58.9355 197.569 56.777V52.3032L195.721 50.0998C195.527 49.876 195.402 49.5966 195.356 49.3057C194.661 45.2344 190.999 39.6645 187.817 37.8304C166.233 25.4379 137.635 22.474 137.35 22.4405C136.939 22.3957 136.562 22.2167 136.277 21.926C129.992 15.3942 119.965 8.92951 107.279 3.20304C106.424 2.81158 106.047 1.81615 106.435 0.977312C106.835 0.138473 107.85 -0.230616 108.705 0.149657C121.493 5.92088 131.714 12.4862 138.319 19.1634C142.802 19.6778 168.857 23.0556 189.539 34.9336C193.85 37.4165 197.696 43.8253 198.63 48.2991L200.58 50.6366C200.832 50.9386 200.968 51.3188 200.968 51.6992V56.777C200.968 60.781 197.638 64.0468 193.554 64.0468L185.398 64.1029ZM82.8537 24.3301C82.1008 24.3301 81.4164 23.838 81.1997 23.0998C79.5227 17.1497 76.4199 15.6174 74.5834 15.2483L74.7659 21.7912C74.7886 22.7196 74.0472 23.4913 73.1004 23.5137C72.1421 23.5584 71.3665 22.8091 71.3436 21.8807L71.104 13.5483C71.0812 12.7094 71.6858 11.9936 72.5186 11.8482C72.6099 11.837 81.1997 10.5061 84.4964 22.1938C84.7473 23.0887 84.2113 24.0058 83.2987 24.263C83.1504 24.319 83.0021 24.3301 82.8537 24.3301ZM39.1238 70.701C29.8724 70.701 22.3435 63.3193 22.3435 54.2487C22.3435 45.1781 29.8724 37.7962 39.1238 37.7962C48.3753 37.7962 55.9042 45.1781 55.9042 54.2487C55.9042 63.3193 48.3753 70.701 39.1238 70.701ZM39.1238 41.1403C31.7547 41.1403 25.7658 47.0122 25.7658 54.2374C25.7658 61.4626 31.7547 67.3345 39.1238 67.3345C46.4931 67.3345 52.482 61.4626 52.482 54.2374C52.482 47.0122 46.4931 41.1403 39.1238 41.1403Z" fill="#353535"/>
<path d="M39.1315 48.4521C35.8804 48.4521 33.2224 51.0469 33.2224 54.2345C33.2224 57.4222 35.8689 60.0282 39.1315 60.0282C42.394 60.0282 45.0292 57.4333 45.0292 54.2345C45.0292 51.0358 42.3827 48.4521 39.1315 48.4521Z" fill="#E03426"/>
<path d="M164.066 70.701C154.814 70.701 147.285 63.3193 147.285 54.2486C147.285 45.178 154.814 37.7961 164.066 37.7961C173.317 37.7961 180.845 45.178 180.845 54.2486C180.845 63.3193 173.317 70.701 164.066 70.701ZM164.066 41.1402C156.697 41.1402 150.708 47.0121 150.708 54.2374C150.708 61.4626 156.697 67.3345 164.066 67.3345C171.435 67.3345 177.425 61.4626 177.425 54.2374C177.425 47.0121 171.435 41.1402 164.066 41.1402Z" fill="#353535"/>
<path d="M164.057 48.4521C160.806 48.4521 158.148 51.0469 158.148 54.2345C158.148 57.4222 160.795 60.0282 164.057 60.0282C167.32 60.0282 169.966 57.4333 169.966 54.2458C169.966 51.0582 167.309 48.4521 164.057 48.4521Z" fill="#E03426"/>
<path d="M17.2682 50.9923H8.76965C8.14225 50.9923 7.62891 50.4891 7.62891 49.8738C7.62891 49.2587 8.14225 48.7554 8.76965 48.7554H17.2682C17.8956 48.7554 18.4089 49.2587 18.4089 49.8738C18.4089 50.4891 17.8956 50.9923 17.2682 50.9923Z" fill="#353535"/>
</svg>
