<svg width="201" height="68" viewBox="0 0 201 68" fill="none" xmlns="http://www.w3.org/2000/svg">
<g clip-path="url(#clip0_10_114)">
<path d="M36.5986 64.721C27.9697 64.721 20.9473 57.629 20.9473 48.9143C20.9473 40.1997 27.9697 33.1077 36.5986 33.1077C45.2277 33.1077 52.2502 40.1997 52.2502 48.9143C52.2502 57.629 45.2383 64.721 36.5986 64.721ZM36.5986 36.3312C29.7253 36.3312 24.1393 41.9727 24.1393 48.9143C24.1393 55.856 29.7253 61.4973 36.5986 61.4973C43.4721 61.4973 49.0582 55.856 49.0582 48.9143C49.0582 41.9727 43.4721 36.3312 36.5986 36.3312Z" fill="#353535"/>
<path d="M36.594 43.3589C33.5617 43.3589 31.0825 45.8518 31.0825 48.925C31.0825 51.9983 33.5509 54.4912 36.594 54.4912C39.6264 54.4912 42.0949 51.9983 42.0949 48.925C42.0949 45.8518 39.637 43.3589 36.594 43.3589Z" fill="#E03426"/>
<path d="M164.952 64.721C156.323 64.721 149.301 57.629 149.301 48.9143C149.301 40.1997 156.323 33.1077 164.952 33.1077C173.581 33.1077 180.604 40.1997 180.604 48.9143C180.604 57.629 173.581 64.721 164.952 64.721ZM164.952 36.3312C158.079 36.3312 152.493 41.9727 152.493 48.9143C152.493 55.856 158.079 61.4973 164.952 61.4973C171.826 61.4973 177.411 55.856 177.411 48.9143C177.411 41.9727 171.826 36.3312 164.952 36.3312Z" fill="#353535"/>
<path d="M164.946 54.491C167.99 54.491 170.457 51.999 170.457 48.9248C170.457 45.8507 167.99 43.3587 164.946 43.3587C161.902 43.3587 159.434 45.8507 159.434 48.9248C159.434 51.999 161.902 54.491 164.946 54.491ZM14.9277 28.5254H8.20323C6.51148 28.5254 5.13892 29.9117 5.13892 31.6201V35.2951C5.13892 36.3912 5.70284 37.3904 6.62852 37.9493C7.11795 38.2393 7.64995 38.3898 8.1926 38.3898C8.69267 38.3898 9.19275 38.2608 9.65027 38.0137L16.3854 34.3388C17.3749 33.8014 17.9921 32.7592 17.9921 31.6201C17.9921 29.9117 16.6195 28.5254 14.9277 28.5254ZM194.104 34.2728C193.136 31.5864 189.379 28.5132 187.05 28.5132H184.805C183.39 28.5132 182.198 29.3943 181.773 30.7482C181.336 32.1236 181.815 33.5529 182.986 34.3803C184.379 35.3796 185.666 36.4756 186.794 37.6254C187.411 38.2594 188.221 38.6033 189.081 38.6033H191.114C192.156 38.6033 193.126 38.0874 193.722 37.2277C194.316 36.3897 194.466 35.2722 194.104 34.2728Z" fill="#E03426"/>
<path d="M8.1306 45.0528C7.54539 45.0528 7.07723 44.58 7.06658 43.989C7.05595 43.3979 7.52411 42.9036 8.11995 42.9036L15.9935 42.8068C16.5787 42.8285 17.0682 43.2798 17.0682 43.8707C17.0682 44.4617 16.6107 44.956 16.0148 44.956L8.14123 45.0528H8.1306ZM144.826 44.772H56.9073C56.3222 44.772 55.8435 44.2885 55.8435 43.6976C55.8435 43.1066 56.3222 42.623 56.9073 42.623H144.826C145.411 42.623 145.89 43.1066 145.89 43.6976C145.89 44.2885 145.411 44.772 144.826 44.772ZM144.711 57.7981H56.4842C55.601 57.7981 54.8882 57.0782 54.8882 56.1864C54.8882 55.2945 55.601 54.5744 56.4842 54.5744H144.7C145.583 54.5744 146.296 55.2945 146.296 56.1864C146.296 57.0782 145.583 57.7981 144.711 57.7981Z" fill="#353535"/>
<path d="M122.781 19.0204C110.726 11.2835 95.5428 7.18945 78.8806 7.18945C69.9856 7.18945 63.293 8.29624 58.9839 10.4668C46.7371 16.6563 46.0668 22.1795 46.0349 22.7921C46.0137 23.0929 46.12 23.3722 46.3223 23.5979C46.5243 23.8128 46.801 23.9311 47.0989 23.9311H114.353C113.585 23.1557 114.353 23.9311 114.353 23.1147C113.289 21.0838 117.098 18.4078 117.013 20.428H120.983C121.196 20.5677 121.419 20.6966 121.643 20.8256C122.132 21.1479 122.792 20.9976 123.111 20.4924C123.43 20.0089 123.281 19.3427 122.781 19.0204Z" fill="#E03426"/>
<path d="M78.0746 29.6245H70.2542C69.669 29.6245 69.1903 29.141 69.1903 28.5499C69.1903 27.9588 69.669 27.4753 70.2542 27.4753H78.0746C78.6598 27.4753 79.1387 27.9588 79.1387 28.5499C79.1387 29.141 78.6598 29.6245 78.0746 29.6245ZM64.2494 50.7077C63.6642 50.7077 63.1853 50.2242 63.1853 49.6331V14.3341C63.1853 13.7431 63.6642 13.2595 64.2494 13.2595C64.8346 13.2595 65.3133 13.7431 65.3133 14.3341V49.6331C65.3133 50.2242 64.8346 50.7077 64.2494 50.7077ZM122.706 30.5262H117.365C115.014 30.5262 113.109 28.6027 113.109 26.2281V23.4556C113.109 21.0808 115.014 19.1575 117.365 19.1575H123.111C123.696 19.1575 124.175 19.641 124.175 20.2321C124.175 20.823 123.696 21.3065 123.111 21.3065H117.365C116.195 21.3065 115.237 22.2737 115.237 23.4556V26.2281C115.237 27.41 116.195 28.377 117.365 28.377H122.706C123.377 28.377 124.026 28.0548 124.419 27.5066L124.536 27.3456C125.334 26.2495 126.611 25.5941 127.962 25.5941H131.569C132.155 25.5941 132.633 26.0776 132.633 26.6686C132.633 27.2595 132.155 27.7432 131.569 27.7432H127.962C127.292 27.7432 126.643 28.0655 126.249 28.6134L126.132 28.7747C125.334 29.8707 124.058 30.5262 122.706 30.5262Z" fill="#353535"/>
<path d="M16.6409 57.9929C16.5133 57.9929 16.3749 57.9822 16.2473 57.9392L5.46895 55.1561C2.33015 54.5113 0 51.6315 0 48.3219V43.1856C0 42.0895 0.265999 40.9827 0.755439 40.0048L3.85167 33.8799L5.89455 25.0686C5.99031 21.0498 9.09719 17.6541 13.0659 17.2458L16.6622 16.3324C20.3012 14.8065 23.493 13.4526 26.3553 12.2383C36.6016 7.87564 42.7834 5.24299 50.5931 3.23357C52.8062 2.67481 104.559 -9.87601 134.223 18.5781C139.405 18.4278 170.857 18.0517 190.328 29.5816C194.349 31.9564 197.936 38.1244 198.808 42.4225L200.628 44.6685C200.862 44.9586 200.989 45.3131 200.989 45.6892V50.5677C200.989 54.4147 197.883 57.5523 194.073 57.5523L185.253 57.778C184.37 57.778 183.636 57.101 183.613 56.2092C183.592 55.3173 184.285 54.5757 185.167 54.5543L194.03 54.3286C196.127 54.3286 197.798 52.6417 197.798 50.5677V46.2695L196.074 44.1526C195.892 43.9377 195.776 43.6691 195.733 43.3897C195.085 39.4783 191.669 34.1163 188.7 32.3648C168.676 20.5231 133.989 21.8126 133.649 21.8234C133.213 21.8448 132.787 21.6729 132.468 21.3721C104.176 -6.46966 51.9019 6.23158 51.3698 6.37127C43.8048 8.31621 37.6975 10.9166 27.5895 15.2149C24.6955 16.4506 21.4716 17.8153 17.7688 19.3626C17.6943 19.3949 17.6198 19.4163 17.5453 19.4378L13.715 20.405C13.6298 20.4265 13.5447 20.4372 13.4596 20.448C11.0018 20.6629 9.07591 22.7689 9.07591 25.262C9.07591 25.3909 9.06528 25.5091 9.03335 25.6272L6.90535 34.7933C6.87342 34.9221 6.83088 35.0404 6.77767 35.1585L3.59631 41.4555C3.33032 42.0034 3.192 42.5945 3.192 43.1856V48.3219C3.192 50.1056 4.44751 51.653 6.18182 52.0077L17.0346 54.8121C17.8858 55.038 18.4072 55.9082 18.1838 56.7786C17.9921 57.5094 17.3432 57.9929 16.6409 57.9929Z" fill="#353535"/>
<path d="M190.407 44.772H185.269C184.684 44.772 184.204 44.2885 184.204 43.6976C184.204 43.1066 184.684 42.623 185.269 42.623H190.407C190.992 42.623 191.472 43.1066 191.472 43.6976C191.472 44.2885 191.003 44.772 190.407 44.772ZM199.404 67.9999H1.596C0.71288 67.9999 0 67.28 0 66.3882C0 65.4963 0.71288 64.7764 1.596 64.7764H199.404C200.288 64.7764 201 65.4963 201 66.3882C201 67.28 200.288 67.9999 199.404 67.9999Z" fill="#353535"/>
</g>
<defs>
<clipPath id="clip0_10_114">
<rect width="201" height="68" fill="white"/>
</clipPath>
</defs>
</svg>
