<svg width="201" height="79" viewBox="0 0 201 79" fill="none" xmlns="http://www.w3.org/2000/svg">
<g clip-path="url(#clip0_10_103)">
<path d="M16.6352 32.6094H9.15651C7.27502 32.6094 5.74854 34.1367 5.74854 36.0194V40.0689C5.74854 41.2767 6.36386 42.378 7.4052 42.9937C7.94952 43.3134 8.54118 43.4791 9.14468 43.4791C9.70085 43.4791 10.257 43.3371 10.7658 43.0646L18.2564 39.0152C19.3568 38.4231 20.0432 37.2746 20.0432 36.0194C20.0432 34.1367 18.5166 32.6094 16.6352 32.6094ZM193.459 38.9559C191.919 34.7524 190.015 32.6094 187.79 32.6094H183.116C181.542 32.6094 180.216 33.5802 179.743 35.0722C179.258 36.5878 179.791 38.1626 181.092 39.0744C182.642 40.1755 184.073 41.3715 185.329 42.6503C186.015 43.3488 186.914 43.7278 187.873 43.7278H190.133C191.292 43.7278 192.369 43.1594 193.032 42.2121C193.695 41.2767 193.861 40.0571 193.459 38.9559Z" fill="#E03426"/>
<path d="M19.102 51.6823C19.102 51.6823 19.0902 51.6823 19.102 51.6823L9.1384 51.6349C8.48757 51.6349 7.95508 51.1021 7.95508 50.4508C7.95508 49.7996 8.48757 49.2668 9.1384 49.2668L19.0902 49.3141C19.741 49.3141 20.2735 49.8469 20.2735 50.4982C20.2735 51.1495 19.7528 51.6823 19.102 51.6823ZM136.569 51.686H62.7536C62.1026 51.686 61.5702 51.1532 61.5702 50.5019C61.5702 49.8507 62.1026 49.3179 62.7536 49.3179H136.581C137.232 49.3179 137.765 49.8507 137.765 50.5019C137.765 51.1532 137.232 51.686 136.569 51.686ZM40.3779 75.5071C30.7812 75.5071 22.9711 67.6923 22.9711 58.0894C22.9711 48.4865 30.7812 40.6716 40.3779 40.6716C49.9748 40.6716 57.7847 48.4865 57.7847 58.0894C57.7847 67.6923 49.9748 75.5071 40.3779 75.5071ZM40.3779 44.2121C32.7337 44.2121 26.5212 50.4285 26.5212 58.0776C26.5212 65.7267 32.7337 71.9432 40.3779 71.9432C48.0222 71.9432 54.2347 65.7267 54.2347 58.0776C54.2347 50.4285 48.0222 44.2121 40.3779 44.2121Z" fill="#353535"/>
<path d="M40.3711 51.8745C36.9513 51.8745 34.1704 54.6571 34.1704 58.079C34.1704 61.5009 36.9513 64.2835 40.3711 64.2835C43.7909 64.2835 46.5718 61.5009 46.5718 58.079C46.5718 54.6571 43.7909 51.8745 40.3711 51.8745Z" fill="#E03426"/>
<path d="M158.578 75.5071C148.981 75.5071 141.171 67.6923 141.171 58.0894C141.171 48.4865 148.981 40.6716 158.578 40.6716C168.175 40.6716 175.985 48.4865 175.985 58.0894C175.985 67.6923 168.175 75.5071 158.578 75.5071ZM158.578 44.2121C150.934 44.2121 144.721 50.4285 144.721 58.0776C144.721 65.7267 150.934 71.9432 158.578 71.9432C166.222 71.9432 172.435 65.7267 172.435 58.0776C172.435 50.4285 166.222 44.2121 158.578 44.2121Z" fill="#353535"/>
<path d="M158.572 51.8745C155.152 51.8745 152.371 54.6571 152.371 58.079C152.371 61.5009 155.152 64.2835 158.572 64.2835C161.992 64.2835 164.772 61.5009 164.772 58.079C164.772 54.6571 161.992 51.8745 158.572 51.8745Z" fill="#E03426"/>
<path d="M135.606 66.0712H63.3878C62.4057 66.0712 61.6128 65.2779 61.6128 64.2951C61.6128 63.3124 62.4057 62.519 63.3878 62.519H135.606C136.588 62.519 137.381 63.3124 137.381 64.2951C137.381 65.2779 136.588 66.0712 135.606 66.0712Z" fill="#353535"/>
<path d="M131.065 23.7519C126.899 16.1029 108.132 11.1653 96.535 9.72073C89.7783 8.88003 51.6278 7.88541 45.569 10.9167C31.7005 17.8554 31.1799 26.5938 31.1561 26.9609C31.1443 27.2806 31.2627 27.6003 31.4876 27.8252C31.7124 28.062 32.02 28.1923 32.3395 28.1923L124.308 28.7251H124.32C124.97 28.7251 125.503 28.2042 125.503 27.5529C125.503 27.2332 125.373 26.9372 125.172 26.7241L129.195 25.1255C129.55 25.5045 130.118 25.6228 130.603 25.3623C131.171 25.0426 131.384 24.3322 131.065 23.7519Z" fill="#E03426"/>
<path d="M86.8763 34.9775H78.1788C77.528 34.9775 76.9954 34.4447 76.9954 33.7934C76.9954 33.1423 77.528 32.6095 78.1788 32.6095H86.8763C87.527 32.6095 88.0595 33.1423 88.0595 33.7934C88.0595 34.4447 87.527 34.9775 86.8763 34.9775ZM71.4328 58.2065C70.782 58.2065 70.2495 57.6737 70.2495 57.0224V14.4431C70.2495 13.7919 70.782 13.259 71.4328 13.259C72.0837 13.259 72.6162 13.7919 72.6162 14.4431V57.0224C72.6162 57.6737 72.0837 58.2065 71.4328 58.2065ZM134.641 35.9956H128.701C126.085 35.9956 123.967 33.8759 123.967 31.2593V28.1925C123.967 25.5756 126.085 23.4562 128.701 23.4562H135.091C135.741 23.4562 136.274 23.989 136.274 24.6403C136.274 25.2914 135.741 25.8242 135.091 25.8242H128.701C127.399 25.8242 126.334 26.89 126.334 28.1925V31.2593C126.334 32.5617 127.399 33.6273 128.701 33.6273H134.641C135.386 33.6273 136.096 33.2722 136.546 32.6563L136.676 32.4788C137.564 31.271 138.984 30.5488 140.486 30.5488H144.498C145.149 30.5488 145.681 31.0816 145.681 31.7329C145.681 32.384 145.149 32.9168 144.498 32.9168H140.486C139.741 32.9168 139.019 33.2722 138.581 33.8759L138.451 34.0655C137.564 35.2732 136.144 35.9956 134.641 35.9956Z" fill="#353535"/>
<path d="M181.676 66.0721C180.718 66.0721 179.925 65.3025 179.902 64.3432C179.877 63.3605 180.646 62.5434 181.628 62.5199L193.249 62.2237C195.58 62.2237 197.438 60.3648 197.438 58.0796V53.3433L195.522 51.0107C195.321 50.7738 195.19 50.4779 195.143 50.1699C194.362 45.4455 189.037 34.7296 185.795 33.439C165.488 25.3399 142.757 23.9663 142.532 23.9546C142.106 23.9309 141.715 23.7532 141.408 23.469C139.692 21.8231 123.279 9.05885 109.659 6.96303C68.5974 0.663747 32.1274 4.96194 29.9855 5.23428C29.7371 5.28165 29.4412 5.31716 29.0625 5.36453C21.0632 6.26442 19.1343 8.02869 18.6965 8.99963C18.377 9.71009 18.6493 10.6929 19.5012 11.9243C19.9272 12.54 19.9272 13.3689 19.4894 13.9728C14.9809 20.2839 10.1056 28.2882 10.1056 30.2064C10.1056 30.3485 10.0938 30.4787 10.0583 30.609L7.69164 40.7092C7.65613 40.8513 7.6088 40.9815 7.54963 41.1118L4.01148 48.0504C3.70381 48.6424 3.54998 49.2937 3.54998 49.9449V55.6048C3.54998 57.5705 4.94631 59.2755 6.87513 59.6662L18.0339 62.3303C18.9924 62.5554 19.5723 63.5144 19.3475 64.4735C19.1225 65.4327 18.1641 66.0247 17.2056 65.7879L6.10597 63.1356C2.59149 62.4369 0 59.2637 0 55.6167V49.9568C0 48.749 0.295831 47.5413 0.840162 46.452L4.28364 39.7028L6.56746 29.9696C6.83962 26.1687 13.0994 16.8974 15.9157 12.8716C14.8744 10.9534 14.7206 9.16541 15.4543 7.54322C17.2529 3.5529 23.8559 2.36881 28.6601 1.82415C28.8849 1.80047 29.0743 1.77678 29.1926 1.76493C29.2755 1.74125 29.3465 1.72942 29.4294 1.71757C29.8079 1.67021 67.5679 -3.08977 110.215 3.44632C124.06 5.56582 139.928 17.5013 143.372 20.4496C147.265 20.7221 167.914 22.4862 187.131 30.1473C192.101 32.1246 197.509 44.0483 198.574 49.1043L200.598 51.5789C200.857 51.8986 201 52.2894 201 52.7039V58.0796C201 62.3185 197.544 65.7761 193.309 65.7761L181.736 66.0721H181.676Z" fill="#353535"/>
<path d="M189.242 51.6859H180.699C180.047 51.6859 179.514 51.1531 179.514 50.5018C179.514 49.8507 180.047 49.3179 180.699 49.3179H189.242C189.892 49.3179 190.425 49.8507 190.425 50.5018C190.425 51.1531 189.904 51.6859 189.242 51.6859ZM199.214 78.9999H1.77499C0.792829 78.9999 0 78.2066 0 77.2238C0 76.2411 0.792829 75.4477 1.77499 75.4477H199.214C200.196 75.4477 200.988 76.2411 200.988 77.2238C200.988 78.2066 200.196 78.9999 199.214 78.9999Z" fill="#353535"/>
</g>
<defs>
<clipPath id="clip0_10_103">
<rect width="201" height="79" fill="white"/>
</clipPath>
</defs>
</svg>
