<svg width="201" height="79" viewBox="0 0 201 79" fill="none" xmlns="http://www.w3.org/2000/svg">
<path d="M147.836 22.8434C148.146 22.3859 148.016 21.7695 147.566 21.4612C132.899 11.707 120.612 9.65873 119.262 9.44992C119.222 9.44992 119.192 9.43999 119.162 9.43999C89.7972 8.16726 44.2545 8.42578 26.0354 8.60476C22.964 8.63459 20.2227 10.3746 18.882 13.1488C17.2911 16.4598 15.7104 20.795 14.6498 24.7524C14.6298 24.8319 14.6198 24.9214 14.6198 25.011V28.2326C14.6198 28.7794 15.07 29.2267 15.6203 29.2267H137.971C138.521 29.2267 138.972 28.7794 138.972 28.2326C138.972 27.7452 138.611 27.3574 138.141 27.2681L140.073 22.8741L146.836 23.2708C147.216 23.3305 147.616 23.1813 147.836 22.8434ZM11.0689 32.7572H5.05587C4.59563 32.7572 4.18544 32.9362 3.89529 33.2643C3.305 33.9304 3.43505 34.9149 3.56512 35.8594C3.60514 36.1577 3.64517 36.4461 3.64517 36.6847V40.0854C3.64517 40.9802 4.18544 41.7558 5.10589 42.1634C5.54612 42.3623 6.03635 42.4517 6.52659 42.4517C7.5171 42.4517 8.54761 42.0739 9.348 41.358L12.6897 37.9376C13.44 37.2017 13.9403 36.7145 13.9403 35.6208C13.9503 34.0498 12.6596 32.7572 11.0689 32.7572ZM197.377 39.1676C196.086 35.6377 194.466 33.8381 192.584 33.8381H187.773C186.442 33.8381 185.32 34.6533 184.92 35.9063C184.511 37.1789 184.96 38.5013 186.061 39.2669C187.372 40.1918 188.582 41.206 189.643 42.2698C190.224 42.8565 190.983 43.1746 191.794 43.1746H194.556C195.536 43.1746 196.446 42.6973 197.006 41.9019C197.578 41.1164 197.717 40.0824 197.377 39.1676Z" fill="#E03426"/>
<path d="M16.1844 51.1321H8.60058C8.05032 51.1321 7.6001 50.6846 7.6001 50.1377C7.6001 49.5908 8.05032 49.1434 8.60058 49.1434H16.1844C16.7346 49.1434 17.1849 49.5908 17.1849 50.1377C17.1849 50.6846 16.7346 51.1321 16.1844 51.1321ZM146.52 51.1321H55.4743C54.924 51.1321 54.4737 50.6846 54.4737 50.1377C54.4737 49.5908 54.924 49.1434 55.4743 49.1434H146.52C147.07 49.1434 147.52 49.5908 147.52 50.1377C147.52 50.6846 147.07 51.1321 146.52 51.1321ZM144.715 66.3044H57.4819C56.6514 66.3044 55.9811 65.6382 55.9811 64.8129C55.9811 63.9878 56.6514 63.3216 57.4819 63.3216H144.715C145.546 63.3216 146.216 63.9878 146.216 64.8129C146.216 65.6382 145.546 66.3044 144.715 66.3044ZM104.182 34.8119H96.8287C96.2784 34.8119 95.8281 34.3644 95.8281 33.8175C95.8281 33.2707 96.2784 32.8232 96.8287 32.8232H104.182C104.733 32.8232 105.183 33.2707 105.183 33.8175C105.183 34.3644 104.733 34.8119 104.182 34.8119ZM85.4648 34.8119H78.111C77.5607 34.8119 77.1106 34.3644 77.1106 33.8175C77.1106 33.2707 77.5607 32.8232 78.111 32.8232H85.4648C86.0149 32.8232 86.4652 33.2707 86.4652 33.8175C86.4652 34.3644 86.0249 34.8119 85.4648 34.8119ZM146.434 33.0732H141.412C139.201 33.0732 137.41 31.2934 137.41 29.096V25.3573C137.41 23.1599 139.201 21.3801 141.412 21.3801H147.615C148.165 21.3801 148.616 21.8276 148.616 22.3745C148.616 22.9213 148.165 23.3688 147.615 23.3688H141.412C140.312 23.3688 139.411 24.2636 139.411 25.3573V29.106C139.411 30.1997 140.312 31.0945 141.412 31.0945H146.434C147.065 31.0945 147.675 30.7962 148.045 30.2892L148.155 30.14C148.906 29.1258 150.116 28.5193 151.377 28.5193H154.769C155.319 28.5193 155.769 28.9668 155.769 29.5136C155.769 30.0605 155.319 30.508 154.769 30.508H151.377C150.747 30.508 150.136 30.8062 149.766 31.3132L149.656 31.4625C148.906 32.4666 147.705 33.0732 146.434 33.0732Z" fill="#353535"/>
<path d="M194.497 66.3021L187.274 66.2624C186.443 66.2624 185.772 65.5862 185.782 64.7609C185.782 63.9356 186.452 63.2794 187.283 63.2794H187.293L194.506 63.3192C196.428 63.3192 197.999 61.7582 197.999 59.8392V51.4669L196.548 48.8222C196.448 48.6431 196.388 48.4542 196.368 48.2455L195.577 40.0821C195.078 37.2383 193.025 34.7825 189.464 32.7838C175.377 24.8592 161.971 25.0381 161.81 25.0283C161.43 25.0381 161.08 24.9089 160.8 24.6603C139.599 6.30524 119.85 3.99844 119.649 3.97854C83.2315 2.38764 23.3916 3.17315 22.7913 3.1831C19.9099 3.1831 16.3481 5.88762 12.9865 10.5907C10.015 14.7569 7.46371 20.1461 6.50323 24.3222C4.67233 32.2568 6.50323 45.1431 6.52324 45.2724C6.58328 45.6701 6.47322 46.0777 6.2231 46.396L3.32165 50.1148C3.11155 50.5819 3.00149 51.0791 3.00149 51.5863V55.8718C3.00149 57.5224 4.18209 58.9542 5.81289 59.2823L14.6873 60.903C15.4977 61.0521 16.038 61.8277 15.8879 62.6431C15.7378 63.4484 14.9575 63.9854 14.137 63.8362L5.23261 62.2055C2.19109 61.5991 0 58.9344 0 55.8718V51.5863C0 50.5721 0.250125 49.5579 0.710353 48.6431C0.750374 48.5636 0.800398 48.4841 0.860428 48.4045L3.47173 45.0635C3.11155 42.2796 1.84091 31.1831 3.58179 23.6559C5.4227 15.6916 13.8669 0.200158 22.7714 0.200158C23.3516 0.190214 83.2715 -0.595293 119.87 1.01549C120.18 1.04532 125.282 1.62203 133.146 4.55524C140.26 7.21007 151.065 12.4004 162.341 22.0552C165.192 22.0949 177.668 22.7313 190.945 30.1887C195.358 32.6646 197.909 35.8463 198.549 39.6447C198.558 39.6843 198.558 39.7142 198.558 39.744L199.32 47.6588L200.81 50.3732C200.929 50.5919 200.989 50.8405 200.989 51.0891V59.8392C201 63.4087 198.078 66.3021 194.497 66.3021Z" fill="#353535"/>
<path d="M191.735 51.132H185.26C184.71 51.132 184.261 50.6845 184.261 50.1377C184.261 49.5908 184.71 49.1433 185.26 49.1433H191.735C192.285 49.1433 192.734 49.5908 192.734 50.1377C192.734 50.6845 192.285 51.132 191.735 51.132ZM91.1838 59.6905C90.6337 59.6905 90.1834 59.2431 90.1834 58.6962V13.3853C90.1834 12.8385 90.6337 12.391 91.1838 12.391C91.7341 12.391 92.1844 12.8385 92.1844 13.3853V58.6962C92.1844 59.2431 91.7341 59.6905 91.1838 59.6905ZM43.2099 25.0775C42.6596 25.0775 42.2095 24.63 42.2095 24.0831V13.3346C42.2095 12.7878 42.6596 12.3403 43.2099 12.3403C43.7602 12.3403 44.2105 12.7878 44.2105 13.3346V24.0831C44.2105 24.63 43.7602 25.0775 43.2099 25.0775ZM199.5 78.9999H1.50075C0.670333 78.9999 0 78.3337 0 77.5084C0 76.6831 0.670333 76.0169 1.50075 76.0169H199.5C200.33 76.0169 201 76.6831 201 77.5084C201 78.3337 200.33 78.9999 199.5 78.9999ZM35.9977 75.9907C26.8933 75.9907 19.4795 68.6328 19.4795 59.5745C19.4795 50.5164 26.8832 43.1585 35.9977 43.1585C45.1123 43.1585 52.516 50.5164 52.516 59.5745C52.516 68.6328 45.1023 75.9907 35.9977 75.9907ZM35.9977 46.1413C28.5441 46.1413 22.481 52.1669 22.481 59.5745C22.481 66.9822 28.5441 73.0078 35.9977 73.0078C43.4514 73.0078 49.5144 66.9822 49.5144 59.5745C49.5144 52.1669 43.4414 46.1413 35.9977 46.1413Z" fill="#353535"/>
<path d="M35.7463 52.6235C31.8945 52.6235 28.7529 55.7356 28.7529 59.5738C28.7529 63.4118 31.8845 66.524 35.7463 66.524C39.5983 66.524 42.7399 63.4118 42.7399 59.5738C42.7399 55.7356 39.6083 52.6235 35.7463 52.6235Z" fill="#E03426"/>
<path d="M166.012 75.9909C156.908 75.9909 149.494 68.633 149.494 59.5747C149.494 50.5166 156.898 43.1587 166.012 43.1587C175.127 43.1587 182.531 50.5166 182.531 59.5747C182.531 68.633 175.117 75.9909 166.012 75.9909ZM166.012 46.1416C158.559 46.1416 152.496 52.1671 152.496 59.5747C152.496 66.9825 158.559 73.008 166.012 73.008C173.466 73.008 179.528 66.9825 179.528 59.5747C179.528 52.1671 173.466 46.1416 166.012 46.1416Z" fill="#353535"/>
<path d="M165.776 52.6235C161.924 52.6235 158.782 55.7356 158.782 59.5738C158.782 63.4118 161.914 66.524 165.776 66.524C169.628 66.524 172.769 63.4118 172.769 59.5738C172.769 55.7356 169.628 52.6235 165.776 52.6235Z" fill="#E03426"/>
</svg>
