<svg width="202" height="67" viewBox="0 0 202 67" fill="none" xmlns="http://www.w3.org/2000/svg">
<g clip-path="url(#clip0_9_81)">
<path d="M14.2977 26.9771H8.10592C6.55065 26.9771 5.28882 28.2404 5.28882 29.7978V33.1474C5.28882 34.1464 5.79747 35.0573 6.65825 35.5666C7.1082 35.8311 7.59729 35.9681 8.09614 35.9681C8.55588 35.9681 9.01561 35.8507 9.43621 35.6253L15.628 32.2757C16.5377 31.7861 17.105 30.8359 17.105 29.7978C17.105 28.2502 15.8432 26.9771 14.2977 26.9771ZM197.29 33.5676C196.02 30.0904 194.445 28.3178 192.605 28.3178H187.901C186.6 28.3178 185.503 29.1209 185.112 30.3549C184.711 31.6087 185.151 32.9113 186.228 33.6654C187.509 34.5763 188.693 35.5753 189.729 36.6233C190.296 37.2013 191.041 37.5146 191.833 37.5146H194.531C195.49 37.5146 196.381 37.0445 196.929 36.261C197.496 35.4871 197.623 34.4784 197.29 33.5676Z" fill="#E03426"/>
<path d="M23.0681 43.3892H7.49574C6.95776 43.3892 6.51758 42.9484 6.51758 42.4097C6.51758 41.8711 6.95776 41.4303 7.49574 41.4303H23.0681C23.606 41.4303 24.0462 41.8711 24.0462 42.4097C24.0462 42.9484 23.606 43.3892 23.0681 43.3892ZM151.93 43.3892H58.8382C58.3002 43.3892 57.8601 42.9484 57.8601 42.4097C57.8601 41.8711 58.3002 41.4303 58.8382 41.4303H151.93C152.468 41.4303 152.908 41.8711 152.908 42.4097C152.908 42.9484 152.478 43.3892 151.93 43.3892ZM40.921 64.0687C32.988 64.0687 26.5322 57.6045 26.5322 49.6612C26.5322 41.718 32.988 35.2538 40.921 35.2538C48.8539 35.2538 55.3098 41.718 55.3098 49.6612C55.3098 57.6045 48.8539 64.0687 40.921 64.0687ZM40.921 38.1822C34.6021 38.1822 29.4667 43.3243 29.4667 49.6514C29.4667 55.9785 34.6021 61.1205 40.921 61.1205C47.2399 61.1205 52.3753 55.9785 52.3753 49.6514C52.3753 43.3243 47.2399 38.1822 40.921 38.1822ZM150.594 54.0545H60.2903C59.4784 54.0545 58.823 53.3983 58.823 52.5854C58.823 51.7725 59.4784 51.1162 60.2903 51.1162H150.594C151.406 51.1162 152.061 51.7725 152.061 52.5854C152.061 53.3983 151.406 54.0545 150.594 54.0545Z" fill="#353535"/>
<path d="M130.107 18.9441C121.137 13.2341 106.553 6.427 88.0657 6.427C49.9761 6.427 43.4322 16.427 43.168 16.858C43.0799 16.9951 43.031 17.1616 43.031 17.3281L42.8451 22.4015C42.8354 22.666 42.9332 22.9304 43.1191 23.1165C43.305 23.3026 43.5592 23.4201 43.8234 23.4201H121.47C122.008 23.4201 122.448 22.9795 122.448 22.4406C122.448 22.3329 123.27 21.1475 123.241 21.0497L128.376 20.1685C128.601 20.3153 128.845 20.4525 129.07 20.5994C129.53 20.8834 130.127 20.7561 130.42 20.2958C130.704 19.8354 130.567 19.238 130.107 18.9441Z" fill="#E03426"/>
<path d="M51.012 28.9359H43.8226C43.2846 28.9359 42.8445 28.4951 42.8445 27.9564C42.8445 27.4176 43.2846 26.977 43.8226 26.977H51.012C51.55 26.977 51.9903 27.4176 51.9903 27.9564C51.9903 28.4951 51.5599 28.9359 51.012 28.9359ZM97.1343 28.9359H89.9449C89.4069 28.9359 88.9668 28.4951 88.9668 27.9564C88.9668 27.4176 89.4069 26.977 89.9449 26.977H97.1343C97.6724 26.977 98.1126 27.4176 98.1126 27.9564C98.1126 28.4951 97.6724 28.9359 97.1343 28.9359ZM84.4292 47.5292C83.8912 47.5292 83.4511 47.0886 83.4511 46.5498V11.0455C83.4511 10.5068 83.8912 10.066 84.4292 10.066C84.9672 10.066 85.4075 10.5068 85.4075 11.0455V46.5498C85.4075 47.0886 84.9672 47.5292 84.4292 47.5292ZM130.008 29.441H125.098C122.936 29.441 121.185 27.6879 121.185 25.5233V22.9963C121.185 20.8319 122.936 19.0786 125.098 19.0786H130.38C130.918 19.0786 131.358 19.5194 131.358 20.058C131.358 20.5968 130.918 21.0374 130.38 21.0374H125.098C124.022 21.0374 123.141 21.919 123.141 22.9963V25.5233C123.141 26.6007 124.022 27.4821 125.098 27.4821H130.008C130.624 27.4821 131.221 27.1884 131.583 26.6889L131.69 26.5419C132.424 25.5428 133.608 24.9455 134.84 24.9455H138.156C138.694 24.9455 139.134 25.3863 139.134 25.9249C139.134 26.4636 138.694 26.9044 138.156 26.9044H134.84C134.224 26.9044 133.627 27.1981 133.265 27.7075L133.158 27.8543C132.424 28.8437 131.25 29.441 130.008 29.441Z" fill="#353535"/>
<path d="M21.549 54.0625H21.451L5.29185 52.9949C5.22338 52.9949 5.1647 52.9852 5.09621 52.9654C2.14217 52.3681 0 49.7433 0 46.7265V40.703C0 39.704 0.24454 38.6951 0.694494 37.8039L3.46269 32.3779V24.3758C3.46269 20.5856 6.41674 17.373 10.1827 17.0595L23.4465 15.9332C39.009 8.13692 52.6054 3.31812 63.8641 1.60411C64.3239 1.51596 76.4334 -0.726934 92.0548 0.242704C106.414 1.13399 126.437 5.04193 140.64 18.5874C145.413 18.754 176.715 20.0175 191.974 26.0311C195.974 27.6081 198.89 31.2026 199.594 35.4337L200.327 39.8412L201.805 42.5542C201.922 42.7696 201.981 43.0145 201.981 43.2594V47.7059C201.981 51.2123 199.124 54.0723 195.623 54.0723H189.294C188.482 54.0723 187.826 53.4161 187.826 52.6031C187.826 51.7901 188.482 51.134 189.294 51.134H195.623C197.51 51.134 199.046 49.5962 199.046 47.7059V43.6413L197.627 41.0361C197.549 40.889 197.49 40.7325 197.471 40.5757L196.698 35.9235C196.16 32.7108 193.939 29.9684 190.897 28.7735C175.169 22.5836 140.337 21.5257 139.985 21.516C139.613 21.5061 139.271 21.3592 139.006 21.1046C112.968 -4.30186 64.8424 4.40529 64.3631 4.49344C53.3 6.17805 39.909 10.9577 24.5127 18.6854C24.3465 18.7736 24.1606 18.8226 23.9747 18.8323L10.4272 19.9783C8.16764 20.1644 6.39718 22.0938 6.39718 24.3661V32.7207C6.39718 32.9557 6.33848 33.181 6.24067 33.3866L3.31597 39.1261C3.06165 39.6159 2.93448 40.1545 2.93448 40.703V46.7265C2.93448 48.323 4.04959 49.7138 5.59508 50.0665L21.6468 51.1242C22.4585 51.1732 23.065 51.8783 23.0161 52.6913C22.9575 53.4649 22.3118 54.0625 21.549 54.0625Z" fill="#353535"/>
<path d="M193.087 43.3892H187.766C187.228 43.3892 186.788 42.9484 186.788 42.4097C186.788 41.8711 187.228 41.4303 187.766 41.4303H193.087C193.624 41.4303 194.065 41.8711 194.065 42.4097C194.065 42.9484 193.624 43.3892 193.087 43.3892Z" fill="#353535"/>
<path d="M40.8939 44.5945C38.1061 44.5945 35.8269 46.8667 35.8269 49.6581C35.8269 52.4495 38.0964 54.7316 40.8939 54.7316C43.6817 54.7316 45.9607 52.4592 45.9607 49.6581C45.9607 46.857 43.6817 44.5945 40.8939 44.5945Z" fill="#E03426"/>
<path d="M169.925 64.0687C161.992 64.0687 155.536 57.6045 155.536 49.6612C155.536 41.718 161.992 35.2538 169.925 35.2538C177.857 35.2538 184.314 41.718 184.314 49.6612C184.314 57.6045 177.857 64.0687 169.925 64.0687ZM169.925 38.1822C163.606 38.1822 158.471 43.3243 158.471 49.6514C158.471 55.9785 163.606 61.1205 169.925 61.1205C176.244 61.1205 181.378 55.9785 181.378 49.6514C181.378 43.3243 176.234 38.1822 169.925 38.1822Z" fill="#353535"/>
<path d="M169.927 44.5945C167.14 44.5945 164.861 46.8667 164.861 49.6581C164.861 52.4495 167.13 54.7316 169.927 54.7316C172.725 54.7316 174.985 52.4592 174.985 49.6581C174.985 46.857 172.715 44.5945 169.927 44.5945Z" fill="#E03426"/>
<path d="M200.533 66.9999H1.46724C0.655368 66.9999 0 66.3437 0 65.5307C0 64.7179 0.655368 64.0616 1.46724 64.0616H200.533C201.344 64.0616 202 64.7179 202 65.5307C202 66.3437 201.344 66.9999 200.533 66.9999Z" fill="#353535"/>
</g>
<defs>
<clipPath id="clip0_9_81">
<rect width="202" height="67" fill="white"/>
</clipPath>
</defs>
</svg>
