<svg width="201" height="83" viewBox="0 0 201 83" fill="none" xmlns="http://www.w3.org/2000/svg">
<g clip-path="url(#clip0_9_72)">
<path d="M197.25 41.4131C195.935 37.777 194.306 35.9231 192.403 35.9231H187.539C186.193 35.9231 185.06 36.763 184.656 38.0536C184.24 39.3646 184.696 40.7269 185.809 41.5155C187.133 42.4683 188.357 43.513 189.43 44.609C190.016 45.2133 190.784 45.541 191.604 45.541H194.397C195.388 45.541 196.308 45.0494 196.874 44.23C197.462 43.4208 197.594 42.3657 197.25 41.4131Z" fill="#E03426"/>
<path d="M18.3304 55.6012H7.7191C7.16273 55.6012 6.70752 55.1403 6.70752 54.577C6.70752 54.0136 7.16273 53.5527 7.7191 53.5527H18.3304C18.8869 53.5527 19.3421 54.0136 19.3421 54.577C19.3421 55.1403 18.8869 55.6012 18.3304 55.6012ZM141.607 55.6012H58.9714C58.4151 55.6012 57.9599 55.1403 57.9599 54.577C57.9599 54.0136 58.4151 53.5527 58.9714 53.5527H141.607C142.163 53.5527 142.619 54.0136 142.619 54.577C142.619 55.1403 142.163 55.6012 141.607 55.6012ZM161.921 79.9267C152.716 79.9267 145.221 72.3473 145.221 63.0163C145.221 53.6853 152.706 46.1058 161.921 46.1058C171.137 46.1058 178.622 53.6853 178.622 63.0163C178.622 72.3473 171.127 79.9267 161.921 79.9267ZM161.921 49.1888C154.385 49.1888 148.255 55.3958 148.255 63.0265C148.255 70.6572 154.385 76.8642 161.921 76.8642C169.458 76.8642 175.588 70.6572 175.588 63.0265C175.588 55.3958 169.448 49.1888 161.921 49.1888ZM38.7023 79.9267C29.497 79.9267 22.0013 72.3473 22.0013 63.0163C22.0013 53.6853 29.487 46.1058 38.7023 46.1058C47.9178 46.1058 55.4035 53.6853 55.4035 63.0163C55.4035 72.3473 47.9078 79.9267 38.7023 79.9267ZM38.7023 49.1888C31.1662 49.1888 25.0361 55.3958 25.0361 63.0265C25.0361 70.6572 31.1662 76.8642 38.7023 76.8642C46.2386 76.8642 52.3687 70.6572 52.3687 63.0265C52.3687 55.3958 46.2285 49.1888 38.7023 49.1888Z" fill="#353535"/>
<path d="M38.4433 55.8657C34.5489 55.8657 31.3726 59.0716 31.3726 63.0253C31.3726 66.9686 34.5387 70.1848 38.4433 70.1848C42.348 70.1848 45.5143 66.9687 45.5143 63.015C45.5143 59.0716 42.348 55.8657 38.4433 55.8657ZM161.805 55.8657C157.911 55.8657 154.734 59.0716 154.734 63.0253C154.734 66.9686 157.9 70.1848 161.805 70.1848C165.71 70.1848 168.876 66.9789 168.876 63.0253C168.866 59.0716 165.7 55.8657 161.805 55.8657Z" fill="#E03426"/>
<path d="M140.236 70.4026H60.3118C59.4722 70.4026 58.7944 69.7164 58.7944 68.8662C58.7944 68.0161 59.4722 67.3298 60.3118 67.3298H140.236C141.076 67.3298 141.754 68.0161 141.754 68.8662C141.754 69.7164 141.066 70.4026 140.236 70.4026Z" fill="#353535"/>
<path d="M134.347 25.2119C133.113 24.4129 131.717 23.2555 130.109 21.9035C123.797 16.6389 114.268 8.67013 97.1619 8.48577C71.4274 8.20922 62.1512 8.26043 50.7104 9.79681C43.3461 10.7903 40.5541 17.4992 39.6336 19.7014C39.5629 19.8755 39.502 20.0291 39.4313 20.1725L38.9355 21.3607L36.4673 28.5202C36.356 28.8377 36.4066 29.1757 36.5988 29.4523C36.791 29.7288 37.0946 29.8825 37.4284 29.8825H125.789C126.346 29.8825 126.801 29.4215 126.801 28.8582C126.801 28.51 126.619 27.1989 126.356 27.0145L133.204 26.9121C133.214 26.9224 133.224 26.9326 133.245 26.9428C133.72 27.2501 134.337 27.1067 134.641 26.6253C134.954 26.1439 134.813 25.5089 134.347 25.2119ZM14.779 33.3561H8.37574C6.76735 33.3561 5.4624 34.6774 5.4624 36.306V39.8089C5.4624 40.8536 5.98842 41.8062 6.87862 42.3388C7.34394 42.6154 7.84974 42.7588 8.36564 42.7588C8.84107 42.7588 9.31651 42.6358 9.75149 42.4003L16.1548 38.8973C17.0955 38.3852 17.6823 37.3917 17.6823 36.306C17.6823 34.6774 16.3773 33.3561 14.779 33.3561ZM18.1336 10.6142C17.6177 10.3991 17.0208 10.6552 16.8185 11.1776C16.6365 11.618 16.8084 12.1097 17.1726 12.376L7.30972 26.1625H6.57127C6.01491 26.1625 5.55969 26.6234 5.55969 27.1867C5.55969 27.7501 6.01491 28.211 6.57127 28.211H15.7665C17.4457 28.211 18.963 27.1458 19.5498 25.5582L20.8447 22.0757C22.0281 18.9824 22.979 12.6218 18.1336 10.6142Z" fill="#E03426"/>
<path d="M44.8812 35.4046H37.4461C36.8898 35.4046 36.4346 34.9437 36.4346 34.3804C36.4346 33.817 36.8898 33.3561 37.4461 33.3561H44.8812C45.4376 33.3561 45.8929 33.817 45.8929 34.3804C45.8929 34.9437 45.4376 35.4046 44.8812 35.4046ZM91.6484 35.4046H84.2133C83.6569 35.4046 83.2018 34.9437 83.2018 34.3804C83.2018 33.817 83.6569 33.3561 84.2133 33.3561H91.6484C92.2048 33.3561 92.6599 33.817 92.6599 34.3804C92.6599 34.9437 92.2048 35.4046 91.6484 35.4046ZM78.4915 62.6062C77.9351 62.6062 77.4798 62.1453 77.4798 61.5819V13.2369C77.4798 12.6736 77.9351 12.2126 78.4915 12.2126C79.0478 12.2126 79.5031 12.6736 79.5031 13.2369V61.5819C79.5031 62.1453 79.0478 62.6062 78.4915 62.6062ZM133.989 36.1711H128.911C126.675 36.1711 124.865 34.3376 124.865 32.074V29.4315C124.865 27.1678 126.675 25.3343 128.911 25.3343H134.373C134.93 25.3343 135.385 25.7952 135.385 26.3585C135.385 26.9219 134.93 27.3829 134.373 27.3829H128.911C127.798 27.3829 126.888 28.3048 126.888 29.4315V32.074C126.888 33.2007 127.798 34.1225 128.911 34.1225H133.989C134.626 34.1225 135.243 33.8153 135.617 33.2929L135.729 33.1393C136.488 32.0945 137.712 31.4697 138.986 31.4697H142.415C142.972 31.4697 143.427 31.9306 143.427 32.494C143.427 33.0573 142.972 33.5182 142.415 33.5182H138.986C138.349 33.5182 137.732 33.8255 137.358 34.3479L137.246 34.5015C136.488 35.5463 135.274 36.1711 133.989 36.1711Z" fill="#353535"/>
<path d="M194.425 70.4002H183.591C182.751 70.4002 182.074 69.714 182.074 68.8639C182.074 68.0137 182.751 67.3275 183.591 67.3275H194.425C196.377 67.3275 197.966 65.7194 197.966 63.7426V55.1184L196.499 52.3938C196.398 52.2095 196.336 52.0046 196.317 51.7998L195.517 42.899C194.951 39.5599 192.655 36.7227 189.529 35.4834C173.263 29.0101 145.95 27.9039 145.677 27.8937C145.303 27.8834 144.938 27.7195 144.665 27.4532C122.643 5.49305 107.116 4.17176 106.964 4.16151C53.7449 1.4165 23.7619 4.78631 23.4585 4.81704C23.4079 4.82728 23.3472 4.82728 23.2864 4.82728H23.2561C20.8181 4.82728 19.1795 5.33941 18.6433 6.27148C18.0264 7.33671 18.7445 9.13941 19.0479 9.68227C19.321 10.1842 19.311 10.7987 18.9973 11.2801L6.6157 30.6182V39.6214C6.6157 39.8672 6.55502 40.1028 6.45385 40.3179L3.42924 46.32C3.16623 46.8219 3.03473 47.3852 3.03473 47.9486V59.6456C3.03473 61.3458 4.22839 62.8208 5.87726 63.1588L16.9439 65.1049C17.7733 65.2482 18.3196 66.0472 18.178 66.8768C18.0364 67.7167 17.2474 68.28 16.428 68.1264L5.31077 66.1803C2.21536 65.5453 0 62.8003 0 59.6456V47.9486C0 46.9038 0.252893 45.8591 0.718219 44.9168L3.58097 39.2424V30.1573C3.58097 29.8602 3.6619 29.5734 3.82376 29.3174L15.993 10.3173C15.4872 9.06771 14.8499 6.75288 16.0132 4.72485C17.1462 2.75828 19.5638 1.75451 23.1954 1.74426C25.0465 1.53941 55.0601 -1.60506 107.136 1.0785C107.834 1.12971 123.776 2.48173 146.385 24.8209C150.593 25.0155 175.043 26.388 190.641 32.595C194.78 34.244 197.793 38.0031 198.521 42.4278C198.532 42.4688 198.532 42.4995 198.532 42.5405L199.3 51.1852L200.808 53.9712C200.929 54.1965 200.989 54.4526 200.989 54.7087V63.7221C201 67.4094 198.056 70.4002 194.425 70.4002Z" fill="#353535"/>
<path d="M192.322 55.6011H182.307C181.752 55.6011 181.297 55.1402 181.297 54.5769C181.297 54.0135 181.752 53.5526 182.307 53.5526H192.322C192.879 53.5526 193.334 54.0135 193.334 54.5769C193.334 55.1402 192.879 55.6011 192.322 55.6011ZM199.482 83H1.51736C0.677756 83 0 82.3137 0 81.4636C0 80.6133 0.677756 79.927 1.51736 79.927H199.482C200.323 79.927 201 80.6133 201 81.4636C201 82.3137 200.323 83 199.482 83Z" fill="#353535"/>
</g>
<defs>
<clipPath id="clip0_9_72">
<rect width="201" height="83" fill="white"/>
</clipPath>
</defs>
</svg>
