<svg width="200" height="73" viewBox="0 0 200 73" fill="none" xmlns="http://www.w3.org/2000/svg">
<g clip-path="url(#clip0_10_92)">
<path d="M13.1319 27.9639H7.37424C5.92799 27.9639 4.75464 29.1093 4.75464 30.5211V33.5579C4.75464 34.4636 5.22762 35.2894 6.02806 35.7511C6.44646 35.9907 6.90125 36.1152 7.36515 36.1152C7.79266 36.1152 8.22015 36.0086 8.61127 35.8044L14.369 32.7676C15.2149 32.3237 15.7424 31.4623 15.7424 30.5211C15.7424 29.1181 14.5691 27.9639 13.1319 27.9639ZM196.624 35.0685C195.442 31.9163 193.977 30.3091 192.267 30.3091H187.893C186.682 30.3091 185.663 31.0372 185.3 32.156C184.926 33.2925 185.337 34.4736 186.337 35.1571C187.528 35.9829 188.63 36.8886 189.593 37.8389C190.121 38.3627 190.812 38.6467 191.549 38.6467H194.06C194.951 38.6467 195.779 38.2205 196.288 37.5102C196.807 36.8089 196.933 35.8943 196.624 35.0685Z" fill="#E03426"/>
<path d="M28.7885 47.4163H8.59563C8.09535 47.4163 7.68604 47.0167 7.68604 46.5283C7.68604 46.0399 8.09535 45.6405 8.59563 45.6405H28.7885C29.2887 45.6405 29.698 46.0399 29.698 46.5283C29.698 47.0167 29.2978 47.4163 28.7885 47.4163ZM147.562 47.4163H62.2334C61.7331 47.4163 61.3238 47.0167 61.3238 46.5283C61.3238 46.0399 61.7331 45.6405 62.2334 45.6405H147.562C148.062 45.6405 148.471 46.0399 148.471 46.5283C148.471 47.0167 148.062 47.4163 147.562 47.4163ZM144.968 60.9822H65.5432C64.7883 60.9822 64.1788 60.3872 64.1788 59.6503C64.1788 58.9133 64.7883 58.3183 65.5432 58.3183H144.968C145.723 58.3183 146.333 58.9133 146.333 59.6503C146.333 60.3872 145.723 60.9822 144.968 60.9822Z" fill="#353535"/>
<path d="M132.757 20.033C131.647 19.3404 137.669 20.1129 136.222 18.941C130.547 14.3769 121.978 7.46874 106.597 7.30892C104.551 7.29116 92.9169 7.26451 83.5755 7.25563C78.0543 7.24677 73.1425 7.23789 71.005 7.229H70.9959C70.5048 7.229 70.0499 7.41547 69.7043 7.75288C69.3587 8.0903 69.1768 8.54314 69.1859 9.03151C69.2313 11.349 69.2404 18.9941 69.1859 22.0487C69.1768 22.7324 69.4496 23.3983 69.9682 23.9133C70.5138 24.4549 71.2597 24.7657 72.0329 24.7657H118.058C119.641 24.7657 121.205 25.1741 122.588 25.9467L125.89 27.7936C126.026 27.8735 126.181 27.909 126.344 27.909H132.366C132.866 27.909 133.275 27.5094 133.275 27.021C133.275 26.6393 133.03 26.3197 132.684 26.1952L131.966 21.5957C132.357 21.7379 132.812 21.6225 133.048 21.2584C133.303 20.8499 133.184 20.2994 132.757 20.033Z" fill="#E03426"/>
<path d="M108.259 29.7396H101.573C101.073 29.7396 100.664 29.34 100.664 28.8518C100.664 28.3634 101.073 27.9638 101.573 27.9638H108.259C108.759 27.9638 109.168 28.3634 109.168 28.8518C109.168 29.3491 108.759 29.7396 108.259 29.7396ZM139.708 31.3159H135.142C133.132 31.3159 131.504 29.7266 131.504 27.7641V21.9215C131.504 19.9592 133.132 18.3699 135.142 18.3699H138.426C138.926 18.3699 139.336 18.7695 139.336 19.2577C139.336 19.7461 138.926 20.1457 138.426 20.1457H135.142C134.142 20.1457 133.323 20.9449 133.323 21.9215V27.7641C133.323 28.7409 134.142 29.5401 135.142 29.5401H139.708C140.281 29.5401 140.836 29.2736 141.173 28.8209L141.273 28.6876C141.955 27.782 143.056 27.2402 144.202 27.2402H145.612C146.112 27.2402 146.521 27.6398 146.521 28.1282C146.521 28.6166 146.112 29.0162 145.612 29.0162H144.202C143.629 29.0162 143.074 29.2825 142.737 29.7355L142.637 29.8686C141.955 30.7743 140.854 31.3159 139.708 31.3159Z" fill="#353535"/>
<path d="M194.088 60.9846H183.846C183.091 60.9846 182.481 60.3896 182.481 59.6526C182.481 58.9157 183.091 58.3207 183.846 58.3207H194.088C195.844 58.3207 197.272 56.9266 197.272 55.213V47.7366L195.953 45.3747C195.861 45.2059 195.807 45.0194 195.789 44.833L195.07 35.3588C194.551 32.473 192.496 30.0134 189.686 28.9389C175.105 23.3451 150.6 24.1263 150.355 24.1352C149.973 24.1529 149.618 24.0109 149.345 23.7535C139.03 13.853 130.353 8.88938 124.886 6.47421C118.983 3.86368 115.463 3.57954 115.427 3.57066C82.3086 2.14107 63.0798 2.83367 62.8888 2.84255C60.4421 2.84255 58.9504 5.12455 58.9504 7.23783C58.9504 7.29998 58.9504 7.35326 58.9412 7.41541L56.7491 23.3805C56.6582 24.0464 56.076 24.5348 55.3939 24.5348H5.9487V42.4001C5.9487 42.693 5.84865 42.986 5.66672 43.217L3.02893 46.5378C2.82881 46.9463 2.72875 47.3902 2.72875 47.8432V51.6701C2.72875 53.1174 3.76568 54.3784 5.20284 54.698L26.1688 56.1808C26.9239 56.2342 27.4877 56.8734 27.4332 57.6015C27.3786 58.3296 26.7146 58.898 25.9777 58.8357L4.91177 57.353C4.85719 57.353 4.79353 57.3441 4.73895 57.3262C1.992 56.7846 0 54.405 0 51.6701V47.8432C0 46.9374 0.227397 46.0317 0.645807 45.2148C0.682189 45.1437 0.72767 45.0728 0.782246 45.0017L3.21993 41.9295V23.194C3.21993 22.4571 3.82937 21.8621 4.58432 21.8621H54.2023L56.2216 7.14016C56.267 3.77488 58.7867 0.178744 62.8342 0.178744C62.9707 0.169864 82.2995 -0.531605 115.59 0.90685C116.227 0.951247 130.544 2.12333 150.846 21.4537C154.794 21.356 176.688 21.0897 190.686 26.4528C194.405 27.8824 197.116 31.1411 197.772 34.9769C197.781 35.0214 197.781 35.0569 197.789 35.1012L198.489 44.3536L199.837 46.7598C199.946 46.9552 200 47.1771 200 47.3991V55.213C200 58.4007 197.344 60.9846 194.088 60.9846Z" fill="#353535"/>
<path d="M191.953 47.4163H181.991C181.491 47.4163 181.082 47.0167 181.082 46.5283C181.082 46.0399 181.491 45.6405 181.991 45.6405H191.953C192.453 45.6405 192.861 46.0399 192.861 46.5283C192.861 47.0167 192.453 47.4163 191.953 47.4163ZM96.4572 55.1428C95.957 55.1428 95.5477 54.7432 95.5477 54.2548V11.3765C95.5477 10.8881 95.957 10.4885 96.4572 10.4885C96.9575 10.4885 97.3668 10.8881 97.3668 11.3765V54.2548C97.3668 54.7521 96.9575 55.1428 96.4572 55.1428ZM76.7807 29.7397H70.0953C69.5949 29.7397 69.1856 29.3401 69.1856 28.8519C69.1856 28.3635 69.5949 27.9639 70.0953 27.9639H76.7807C77.2809 27.9639 77.6902 28.3635 77.6902 28.8519C77.6902 29.3492 77.29 29.7397 76.7807 29.7397ZM198.635 73.0002H1.36438C0.609423 73.0002 0 72.4052 0 71.6683C0 70.9312 0.609423 70.3364 1.36438 70.3364H198.635C199.391 70.3364 200 70.9312 200 71.6683C200 72.4052 199.381 73.0002 198.635 73.0002Z" fill="#353535"/>
<path d="M45.8394 70.6056C37.562 70.6056 30.822 64.0349 30.822 55.9458C30.822 47.8567 37.5529 41.286 45.8394 41.286C54.1257 41.286 60.8566 47.8656 60.8566 55.9458C60.8566 64.026 54.1166 70.6056 45.8394 70.6056ZM45.8394 43.9498C39.0629 43.9498 33.5508 49.3308 33.5508 55.9458C33.5508 62.561 39.0629 67.9418 45.8394 67.9418C52.6157 67.9418 58.1278 62.561 58.1278 55.9458C58.1278 49.3308 52.6157 43.9498 45.8394 43.9498Z" fill="#353535"/>
<path d="M45.6134 49.7446C42.1115 49.7446 39.2554 52.5238 39.2554 55.9512C39.2554 59.3699 42.1024 62.1579 45.6134 62.1579C49.1243 62.1579 51.9713 59.3787 51.9713 55.9512C51.9713 52.5327 49.1152 49.7446 45.6134 49.7446Z" fill="#E03426"/>
<path d="M164.631 70.6056C156.354 70.6056 149.614 64.0349 149.614 55.9458C149.614 47.8567 156.345 41.286 164.631 41.286C172.917 41.286 179.647 47.8567 179.647 55.9458C179.647 64.0349 172.908 70.6056 164.631 70.6056ZM164.631 43.9498C157.855 43.9498 152.343 49.3308 152.343 55.9458C152.343 62.561 157.855 67.9418 164.631 67.9418C171.407 67.9418 176.919 62.561 176.919 55.9458C176.919 49.3308 171.407 43.9498 164.631 43.9498Z" fill="#353535"/>
<path d="M164.396 49.7446C160.894 49.7446 158.038 52.5238 158.038 55.9512C158.038 59.3699 160.885 62.1579 164.396 62.1579C167.898 62.1579 170.754 59.3787 170.754 55.9512C170.745 52.5327 167.898 49.7446 164.396 49.7446Z" fill="#E03426"/>
</g>
<defs>
<clipPath id="clip0_10_92">
<rect width="200" height="73" fill="white"/>
</clipPath>
</defs>
</svg>
