<svg width="201" height="71" viewBox="0 0 201 71" fill="none" xmlns="http://www.w3.org/2000/svg">
<g clip-path="url(#clip0_10_124)">
<path d="M15.9119 9.38427C15.4356 9.1393 14.8524 9.33528 14.6094 9.81542C14.3858 10.2662 14.5511 10.8051 14.969 11.0795L6.92047 24.0631H6.31781C5.78318 24.0631 5.34576 24.504 5.34576 25.0429C5.34576 25.5818 5.78318 26.0229 6.31781 26.0229H13.2096C14.8232 26.0229 16.2813 25.0037 16.8451 23.485L18.0894 20.1533C18.2156 19.8201 21.122 12.03 15.9119 9.38427ZM14.1989 31.2742H8.04583C6.50028 31.2742 5.24634 32.5382 5.24634 34.0963V37.4475C5.24634 38.447 5.7518 39.3583 6.6072 39.8679C7.05433 40.1323 7.54036 40.2695 8.03611 40.2695C8.49296 40.2695 8.94983 40.152 9.36781 39.9266L15.5209 36.5754C16.4249 36.0855 16.9887 35.135 16.9887 34.0963C16.9887 32.5382 15.7347 31.2742 14.1989 31.2742ZM187.956 36.517C186.692 33.0384 185.128 31.2648 183.3 31.2648H178.624C177.331 31.2648 176.243 32.0683 175.854 33.303C175.455 34.5572 175.893 35.8604 176.963 36.615C178.236 37.5263 179.412 38.516 180.441 39.5743C181.006 40.1524 181.744 40.4659 182.533 40.4659H185.214C186.166 40.4659 187.052 39.9957 187.596 39.2116C188.15 38.4376 188.286 37.4283 187.956 36.517Z" fill="#E03426"/>
<path d="M23.1754 47.3259H7.5448C7.01018 47.3259 6.57275 46.8848 6.57275 46.3459C6.57275 45.8071 7.01018 45.366 7.5448 45.366H23.1655C23.7003 45.366 24.1377 45.8071 24.1377 46.3459C24.1377 46.8848 23.71 47.3259 23.1754 47.3259ZM142.318 47.3259H58.7515C58.2169 47.3259 57.7795 46.8848 57.7795 46.3459C57.7795 45.8071 58.2169 45.366 58.7515 45.366H142.328C142.863 45.366 143.3 45.8071 143.3 46.3459C143.3 46.8848 142.863 47.3259 142.318 47.3259ZM140.996 58.0068H60.2967C59.4899 58.0068 58.8386 57.3502 58.8386 56.5369C58.8386 55.7236 59.4899 55.0671 60.2967 55.0671H141.006C141.812 55.0671 142.464 55.7236 142.464 56.5369C142.464 57.3502 141.803 58.0068 140.996 58.0068Z" fill="#353535"/>
<path d="M128.554 23.0725C126.26 20.3681 110.212 7.61967 95.0577 7.24731C51.0045 6.15964 31.1748 7.23751 30.9804 7.24731C30.6013 7.25711 30.2806 7.4923 30.1347 7.83524L22.8929 25.0127C22.7665 25.3164 22.7958 25.6595 22.9804 25.9338C23.1652 26.2082 23.4665 26.3749 23.7872 26.3749H121.42C121.954 26.3749 122.392 25.9338 122.392 25.3949C122.392 25.3067 122.363 25.2284 122.343 25.1499L126.737 23.9839C126.863 24.1112 126.98 24.2386 127.067 24.3366C127.417 24.7482 128.029 24.7972 128.438 24.4444C128.856 24.1014 128.904 23.4743 128.554 23.0725Z" fill="#E03426"/>
<path d="M49.9141 31.9019H42.7696C42.2348 31.9019 41.7975 31.461 41.7975 30.922C41.7975 30.3831 42.2348 29.9422 42.7696 29.9422H49.9141C50.4487 29.9422 50.8861 30.3831 50.8861 30.922C50.8861 31.461 50.4487 31.9019 49.9141 31.9019ZM92.646 31.9019H85.5013C84.9667 31.9019 84.5293 31.461 84.5293 30.922C84.5293 30.3831 84.9667 29.9422 85.5013 29.9422H92.646C93.1806 29.9422 93.618 30.3831 93.618 30.922C93.618 31.461 93.1806 31.9019 92.646 31.9019ZM80.0184 51.5098C79.4838 51.5098 79.0464 51.0689 79.0464 50.53V11.5597C79.0464 11.0208 79.4838 10.5798 80.0184 10.5798C80.553 10.5798 80.9904 11.0208 80.9904 11.5597V50.5398C80.9904 51.0787 80.553 51.5098 80.0184 51.5098ZM35.9652 22.6805C35.4306 22.6805 34.9932 22.2395 34.9932 21.7005V11.686C34.9932 11.1471 35.4306 10.7062 35.9652 10.7062C36.5 10.7062 36.9372 11.1471 36.9372 11.686V21.7005C36.9372 22.2395 36.5 22.6805 35.9652 22.6805ZM129.218 33.3601H124.338C122.19 33.3601 120.45 31.606 120.45 29.4405V26.9124C120.45 24.7467 122.19 22.9929 124.338 22.9929H129.587C130.122 22.9929 130.559 23.4338 130.559 23.9727C130.559 24.5117 130.122 24.9526 129.587 24.9526H124.338C123.269 24.9526 122.394 25.8344 122.394 26.9124V29.4405C122.394 30.5183 123.269 31.4003 124.338 31.4003H129.218C129.83 31.4003 130.423 31.1064 130.783 30.6065L130.89 30.4596C131.619 29.4601 132.795 28.8624 134.02 28.8624H137.315C137.849 28.8624 138.287 29.3033 138.287 29.8422C138.287 30.3811 137.849 30.8222 137.315 30.8222H134.02C133.407 30.8222 132.814 31.1161 132.455 31.6158L132.348 31.7628C131.619 32.7623 130.452 33.3601 129.218 33.3601Z" fill="#353535"/>
<path d="M21.6475 58.114H21.5405L5.24906 56.9383C5.19074 56.9383 5.1227 56.9283 5.06437 56.9088C2.12878 56.311 0 53.6849 0 50.6668V44.6405C0 43.641 0.243013 42.6415 0.690153 41.74L3.44105 36.3115V28.3057C3.44105 24.6116 18.9354 1.76056 22.9597 1.4176C23.2513 1.3882 54.8429 -1.75725 100.51 1.4176C100.548 1.4176 100.597 1.4274 100.636 1.4274C101.472 1.56458 121.146 4.85702 139.771 22.5244C143.805 22.7106 167.649 24.0138 182.667 29.9618C186.643 31.5394 189.539 35.1356 190.239 39.3688L190.968 43.7782L192.436 46.4926C192.553 46.7081 192.611 46.953 192.611 47.1981V51.6468C192.611 55.1548 189.772 58.0161 186.294 58.0161L179.518 57.8496C178.71 57.8299 178.079 57.1538 178.098 56.3405C178.118 55.5271 178.818 54.9196 179.595 54.9098L186.332 55.0765C188.17 55.0765 189.695 53.5379 189.695 51.6468V47.5803L188.286 44.9737C188.208 44.8267 188.15 44.67 188.131 44.5131L187.362 39.8587C186.828 36.6447 184.62 33.9009 181.598 32.7054C165.967 26.5126 139.372 25.4544 139.11 25.4444C138.75 25.4347 138.42 25.2877 138.157 25.0428C120.582 8.16905 101.423 4.56305 100.237 4.34747C55.8635 1.26081 24.9136 4.18089 23.3 4.33767C20.5394 5.50374 6.70712 25.082 6.35719 28.3352V36.6642C6.35719 36.8994 6.29886 37.1248 6.20166 37.3306L3.29524 43.0727C3.04251 43.5628 2.91614 44.1017 2.91614 44.6405V50.6668C2.91614 52.2642 4.02427 53.6556 5.5601 54.0083L21.7447 55.1745C22.5515 55.2332 23.1541 55.9388 23.0958 56.7421C23.0473 57.5164 22.4057 58.114 21.6475 58.114ZM23.2513 4.33767H23.2319C23.2416 4.34747 23.2416 4.33767 23.2513 4.33767Z" fill="#353535"/>
<path d="M183.744 47.3259H177.922C177.388 47.3259 176.951 46.8849 176.951 46.346C176.951 45.8071 177.388 45.366 177.922 45.366H183.744C184.28 45.366 184.717 45.8071 184.717 46.346C184.717 46.8849 184.289 47.3259 183.744 47.3259ZM199.542 71H1.72052C0.913723 71 0.262451 70.3436 0.262451 69.5301C0.262451 68.7168 0.913723 68.0604 1.72052 68.0604H199.542C200.348 68.0604 201 68.7168 201 69.5301C201 70.3436 200.348 71 199.542 71ZM40.9612 68.0201C33.078 68.0201 26.6624 61.5527 26.6624 53.6059C26.6624 45.659 33.078 39.1917 40.9612 39.1917C48.8445 39.1917 55.2601 45.659 55.2601 53.6059C55.2601 61.5527 48.8445 68.0201 40.9612 68.0201ZM40.9612 42.1216C34.6819 42.1216 29.5786 47.2659 29.5786 53.5961C29.5786 59.9261 34.6819 65.0706 40.9612 65.0706C47.2407 65.0706 52.344 59.9261 52.344 53.5961C52.344 47.2659 47.2407 42.1216 40.9612 42.1216Z" fill="#353535"/>
<path d="M40.9622 48.5315C38.1918 48.5315 35.927 50.8047 35.927 53.5975C35.927 56.3901 38.1821 58.6733 40.9622 58.6733C43.7422 58.6733 45.9876 56.3999 45.9876 53.5975C45.9876 50.795 43.7325 48.5315 40.9622 48.5315Z" fill="#E03426"/>
<path d="M160.262 68.0201C152.378 68.0201 145.963 61.5527 145.963 53.6059C145.963 45.659 152.378 39.1917 160.262 39.1917C168.145 39.1917 174.56 45.659 174.56 53.6059C174.56 61.5527 168.145 68.0201 160.262 68.0201ZM160.262 42.1216C153.982 42.1216 148.879 47.2659 148.879 53.5961C148.879 59.9261 153.982 65.0706 160.262 65.0706C166.541 65.0706 171.644 59.9261 171.644 53.5961C171.644 47.2659 166.541 42.1216 160.262 42.1216Z" fill="#353535"/>
<path d="M160.263 48.5315C157.493 48.5315 155.228 50.8047 155.228 53.5975C155.228 56.3901 157.483 58.6733 160.263 58.6733C163.043 58.6733 165.288 56.3999 165.288 53.5975C165.288 50.795 163.033 48.5315 160.263 48.5315Z" fill="#E03426"/>
</g>
<defs>
<clipPath id="clip0_10_124">
<rect width="201" height="71" fill="white"/>
</clipPath>
</defs>
</svg>
